<?xml version="1.0" encoding="utf-8" ?><svg xmlns="http://www.w3.org/2000/svg" xmlns:xlink="http://www.w3.org/1999/xlink" width="1251" height="1752" viewBox="0 0 1251 1752"><path fill="#040202" transform="scale(1.22168 1.22176)" d="M141.857 285.235C146.183 247.078 184.641 223.936 219.044 242.937C237.297 253.019 243.915 269.796 249.036 288.721C271.556 290.822 283.326 295.753 300.795 309.918C325.207 312.192 341.816 330.62 344.192 353.483C346.547 376.142 340.295 388.427 324.5 402.312C316.538 409.31 331.806 427.122 325.882 434.943C323.384 438.24 316.783 438.526 313.162 438.942C311.666 446.423 310.902 446.895 305.522 452.583C304.994 455.097 304.589 458.145 304.185 460.727L297.958 463.037C295.668 468.231 292.034 478.42 285.913 479.328C273.777 481.129 258.218 472.762 248.422 466.482C249.409 473.883 250.31 481.462 251.828 488.758C260.831 495.16 266.201 505.787 272.647 514.631C276.309 519.656 285.611 525.918 288.332 530.246C299.709 548.338 305.985 571.526 314.543 591.335C323.61 585.832 329.748 581.28 337.154 573.806C352.958 557.859 362.92 539.483 383.21 528.561C388.997 516.309 395.929 499.589 406.089 490.731C414.22 491.149 446.353 495.892 449.816 502.929C450.065 511.393 436.95 530.637 432.72 540.165C433.449 541.816 434.108 543.465 434.791 545.096C436.64 549.508 435.242 559.018 434.994 564.065C433.886 586.69 432.182 594.476 413.193 607.604C410.586 609.406 405.287 614.198 403.963 617.491C397.458 633.663 393.149 655.292 389.652 672.424C401.785 666.273 416.89 661.138 429.527 655.963C447.128 648.754 464.633 641.393 482.407 634.62C482.698 634.106 484.096 632.874 484.61 632.386C485.942 624.033 486.621 621.383 490.57 613.949C498.71 617.722 504.044 623.404 511.19 628.196C520.877 626.442 531.779 624.214 541.44 622.879C549.868 635.343 556.678 642.624 570.12 649.531C581.242 655.246 574.715 664.37 571.635 673.15C590.544 682.029 610.414 691.669 629.619 699.65C629.587 684.192 629.392 668.406 629.603 652.975C614.658 647.191 597.588 640.953 583.279 634.167C571.042 592.678 560.195 550.922 548.454 509.303C547.055 504.344 545.305 499.079 544.176 494.079L552.696 491.776C587.352 505.165 622.644 518.153 656.954 532.266C661.857 506.155 669.211 471.712 692.7 455.95C698.922 451.774 704.921 449.789 711.82 447.126C697.281 424.802 688.533 394.323 689.44 367.636C666.309 358.149 665.863 336.024 679.665 317.775C681.553 320.823 683.226 323.99 687.067 324.75C699.696 326.684 713.045 315.008 724.218 310.353C747.188 300.783 772.625 300.999 787.084 324.097C802.298 348.403 806.026 377.44 792.29 402.999C793.868 406.668 795.525 410.4 796.988 414.107C804.185 419.033 805.208 420.609 810.229 427.874C824.076 433.302 832.309 438.288 844.566 445.833C871.232 462.249 888.792 479.231 901.094 508.549C919.255 551.835 928.031 600.13 933.001 646.748C933.965 655.787 935.406 670.008 935.407 678.807L927.428 682.687C928.256 697.214 928.449 710.211 928.077 724.759C941.966 730.784 962.851 739.343 975.869 746.339C985.897 744.432 991.344 748.399 1000.58 752.809C1000.35 780.509 999.16 810.087 998.549 838.011C1001.81 840.514 1015.29 843.252 1021.17 845.878C1021.36 849.895 1021.33 850.633 1022.89 854.328L1022.93 855.239C1023.4 869.171 1022.84 884.678 1022.88 898.762L1022.85 900.123C1023.64 918.656 1022.2 939.294 1023.25 957.283L1023.06 959.342L1023.16 1083.13C1023.17 1091.61 1024.33 1122.04 1022.87 1128.62L1023.1 1131.39C1023.14 1145.8 1021.88 1256.5 1024 1262.14L1024 1302.1C1022.53 1310.8 1023.82 1322.98 1023.06 1332.09C1018.3 1337.59 880.076 1409.38 862.967 1417.77L511.376 1231.17L406.668 1175.82C389.454 1166.84 358.733 1151.91 343.696 1142.09L343.585 884.438C343.56 844.261 344.708 798.515 343.323 758.84C332.129 755.5 328.128 753.677 317.832 748.072L314.413 753.16C314.685 761.015 313.685 770.259 314.332 777.898C316.041 797.019 318.539 816.054 320.258 835.185C328.108 922.821 328.579 1011.05 325.964 1098.94C325.486 1115.02 328.983 1122.15 331.271 1137.38C332.173 1143.39 328.974 1153.77 329.706 1161.81C333.747 1206.24 337.361 1250.8 342.286 1295.14C343.667 1307.58 349.547 1318.71 350.786 1332.02C348.703 1336.1 343.306 1340.9 343.305 1343.95C348.914 1350.11 386.294 1337.41 399.281 1346.67C407.167 1352.29 407.913 1353.82 410.833 1363.8C402.547 1383.26 366.776 1396.66 348.828 1406.81C327.331 1418.97 301.965 1431.57 280.027 1412.78C274.075 1393.73 281.698 1376.44 280.149 1354.28C267.672 1346.44 257.748 1330.88 265.735 1316.58C259.055 1302.42 254.282 1284.19 249.929 1269.04C243.458 1283.17 238.558 1296.47 233.7 1311.17C231.079 1319.1 226.51 1323.16 218.896 1326.32C233.343 1332.77 244.352 1329.96 255.858 1337C256.656 1338.33 258.027 1340.36 258.484 1341.81C259.877 1346.23 260.241 1351.56 258.096 1355.84C253.744 1364.52 243.796 1369.66 235.074 1372.91C225.247 1376.4 214.849 1378.18 204.69 1380.63C184.167 1385.57 159.846 1395.57 139.299 1385.61C131.374 1381.77 126.924 1376.25 124.084 1368.15C125.958 1352.55 135.169 1338.65 144.823 1326.67C148.863 1321.66 150.331 1320.28 151.752 1313.96C149.465 1310.65 147.511 1307.38 145.434 1303.95C145.789 1297.65 146.624 1287.52 148.962 1281.83C157.877 1260.15 160.639 1236.77 167.223 1214.28C177.533 1179.07 188.613 1142.23 202.656 1108.33C183.742 1062.01 166.977 1015.77 150.046 968.746C139.542 972.001 124.225 977.324 113.718 976.725C89.4756 975.342 53.12 942.584 37.8074 925.618C40.0299 894.421 59.2956 796.363 77.2184 772.854C80.724 740.779 84.5615 709.345 89.8569 677.546C93.3391 654.413 100.336 634.852 99.5394 611.185C98.1272 569.251 101.348 521.266 132.301 489.548C142.892 478.695 154.424 469.015 165.552 458.814L185.1 465.346C186.178 461.316 187.986 456.234 189.298 452.181C158.544 434.547 153.704 397.026 158.168 365.039C153.98 365.835 150.288 366.503 145.989 366.884C98.7368 371.067 83.3277 297.753 131.187 286.474C134.62 285.665 138.298 285.488 141.857 285.235ZM97.1883 782.188C105.772 787.044 115.475 792.603 124.542 796.371C124.379 785.691 125.279 758.82 123.139 749.834C118.19 729.058 114.166 710.936 111.488 689.315C110.988 686.148 110.878 685.104 110.875 681.853L110.432 679.096L109.759 678.976L109.202 681.584L108.4 688.215C104.943 712.764 97.2661 759.255 97.1883 782.188Z"/><path fill="#040202" transform="scale(1.22168 1.22176)" d="M679.665 317.775C681.553 320.823 683.226 323.99 687.067 324.75C699.696 326.684 713.045 315.008 724.218 310.353C747.188 300.783 772.625 300.999 787.084 324.097C802.298 348.403 806.026 377.44 792.29 402.999C793.868 406.668 795.525 410.4 796.988 414.107C804.185 419.033 805.208 420.609 810.229 427.874C824.076 433.302 832.309 438.288 844.566 445.833C871.232 462.249 888.792 479.231 901.094 508.549C919.255 551.835 928.031 600.13 933.001 646.748C933.965 655.787 935.406 670.008 935.407 678.807L927.428 682.687C928.256 697.214 928.449 710.211 928.077 724.759C941.966 730.784 962.851 739.343 975.869 746.339C985.897 744.432 991.344 748.399 1000.58 752.809C1000.35 780.509 999.16 810.087 998.549 838.011C1001.81 840.514 1015.29 843.252 1021.17 845.878C1021.36 849.895 1021.33 850.633 1022.89 854.328C1015.35 854.562 882.817 924.067 863.126 934.115C816.045 909.979 767.991 887.589 720.532 864.087L490.221 750.021C454.176 732.582 418.004 716.561 381.992 698.7C384.564 690.986 386.669 682.748 388.807 674.871C419.682 662.443 452.361 650.243 482.527 636.551L482.407 634.62C482.698 634.106 484.096 632.874 484.61 632.386C485.942 624.033 486.621 621.383 490.57 613.949C498.71 617.722 504.044 623.404 511.19 628.196C520.877 626.442 531.779 624.214 541.44 622.879C549.868 635.343 556.678 642.624 570.12 649.531C581.242 655.246 574.715 664.37 571.635 673.15C590.544 682.029 610.414 691.669 629.619 699.65C629.587 684.192 629.392 668.406 629.603 652.975C614.658 647.191 597.588 640.953 583.279 634.167C571.042 592.678 560.195 550.922 548.454 509.303C547.055 504.344 545.305 499.079 544.176 494.079L552.696 491.776C587.352 505.165 622.644 518.153 656.954 532.266C661.857 506.155 669.211 471.712 692.7 455.95C698.922 451.774 704.921 449.789 711.82 447.126C697.281 424.802 688.533 394.323 689.44 367.636C666.309 358.149 665.863 336.024 679.665 317.775Z"/><path fill="#ECE6BC" transform="scale(1.22168 1.22176)" d="M388.807 674.871C419.682 662.443 452.361 650.243 482.527 636.551C484.281 638.701 484.18 641.84 484.621 644.984C485.256 664.733 480.118 692.985 477.207 713.298C490.066 720.035 502.186 726.076 515.338 732.212C525.463 736.936 539.67 742.905 548.864 748.811C561.708 743.874 574.245 739.15 587.211 734.552C582.581 714.461 577.236 695.732 571.53 675.885C591.094 684.092 610.691 694.605 630.177 702.444L629.776 728.828C614.732 733.206 596.348 740.939 581.378 746.428L581.792 759.46C595.624 767.192 610.162 774.115 624.446 781.021C638.582 787.857 653.366 795.19 667.931 800.99C686.335 794.342 703.901 786.157 722.51 779.716L724.343 768.851C706.712 756.476 679.494 743.254 659.73 733.631L659.713 716.222C705.781 738.239 751.563 758.881 798.392 779.17C781.945 794.95 763.853 811.927 748.991 829.237C752.221 839.869 754.851 850.54 756.917 861.459C785.352 878.382 824.93 895.156 854.867 910.016C899.513 884.785 953.019 862.622 998.549 838.011C1001.81 840.514 1015.29 843.252 1021.17 845.878C1021.36 849.895 1021.33 850.633 1022.89 854.328C1015.35 854.562 882.817 924.067 863.126 934.115C816.045 909.979 767.991 887.589 720.532 864.087L490.221 750.021C454.176 732.582 418.004 716.561 381.992 698.7C384.564 690.986 386.669 682.748 388.807 674.871Z"/><path fill="#E4D0BA" transform="scale(1.22168 1.22176)" d="M484.61 632.386C484.631 636.386 484.773 641.04 484.621 644.984C484.18 641.84 484.281 638.701 482.527 636.551L482.407 634.62C482.698 634.106 484.096 632.874 484.61 632.386Z"/><path fill="#DE8D7B" transform="scale(1.22168 1.22176)" d="M833.277 441.967C838.726 444.314 848.097 451.074 852.933 454.53C850.926 459.709 847.866 465.358 845.676 470.575C824.731 520.481 799.158 573.521 850 615.345C854.784 639.127 857.057 662.891 860.786 686.792C860.98 688.033 864.217 689.795 865.315 690.456C865.198 698.501 864.684 707.098 864.309 715.172C842.459 735.105 820.755 757.249 799.433 777.983C787.616 771.618 773.594 766.141 761.198 760.511C736.636 749.356 711.358 738.556 687.237 726.523C690.411 711.555 692.719 697.331 694.408 682.107C703.835 685.285 712.986 688.714 722.297 692.191C730.718 695.711 745.397 703.201 754.282 700.289C767.174 696.064 758.265 679.025 755.501 670.985L745.117 640.337L729.186 593.052C716.078 554.276 722.904 559.333 685.718 543.916C690.35 507.656 693.789 480.33 712.212 448.525C715.496 451.66 718.414 453.847 721.997 456.583C714.738 483.759 710.156 502.286 709.514 530.822C742.783 544.085 762.714 546.521 797.535 550.664C800.646 517.539 819.983 472.477 833.277 441.967Z"/><path fill="#FEFEFE" transform="scale(1.22168 1.22176)" d="M855.097 455.719C866.371 463.436 881.887 477.037 888.377 489.028C917.722 543.244 930.877 617.189 933.044 677.648C910.352 688.506 887.505 690.261 862.763 686.994C861.244 674.282 859.843 661.536 857.709 648.914C854.534 623.239 848.882 597.383 845.997 571.572C844.88 561.584 843.636 549.765 841.585 540.004L840.694 540.781L841.109 539.052C838.139 544.241 848.323 603.672 849.966 613.156C809.654 576.576 820.577 536.861 839.017 493.222C844.405 480.471 848.767 468.321 855.097 455.719Z"/><path fill="#6193A8" transform="scale(1.22168 1.22176)" d="M548.14 500.285C551.031 501.206 553.829 502.387 556.624 503.564C599.787 521.751 643.795 537.865 686.89 556.216C692.923 558.785 698.96 561.369 704.648 564.639C710.697 578.382 715.88 597.031 720.681 611.582C730.56 641.525 739.849 670.805 751.213 700.254C735.621 695.492 721.482 689.756 706.349 683.752C700.822 651.733 693.785 619.22 687.546 587.234L637.232 567.732C628.275 564.261 610.068 556.456 601.513 555.517L601.679 556.111C608.829 559.918 626.62 565.964 635.069 569.081C649.887 573.874 671.077 582.828 686.067 588.745C686.599 593.044 687.353 597.333 688.234 601.572C693.9 628.81 698.904 656.184 704.62 683.413L697.415 680.632C693.289 655.653 686.161 618.34 680.287 594.123C666.043 587.994 651.062 582.377 636.551 576.88C625.579 572.724 614.462 569.141 603.783 564.195C608.683 589.691 616.276 614.768 619.828 640.63C620.649 646.606 624.505 642.451 628.746 645.298C629.923 647.58 629.832 646.654 629.562 649.009L628.311 649.773C626.521 649.602 589.519 634.686 585.343 633.006C580.042 616.131 575.624 598.972 570.865 581.922L548.14 500.285Z"/><path fill="#040202" transform="scale(1.22168 1.22176)" d="M615.18 634.257C612.27 622.222 597.297 564.112 597.958 556.889C600.801 559.329 614.559 624.984 616.814 634.313L615.18 634.257Z"/><path fill="#30444C" transform="scale(1.22168 1.22176)" d="M615.18 634.257L616.814 634.313C617.136 636.083 617.037 636.214 616.818 637.942C615.406 636.895 615.746 636.492 615.18 634.257Z"/><path fill="#B88D86" transform="scale(1.22168 1.22176)" d="M744.19 338.02C745.61 339.488 748.433 353.951 751.038 357.708C759.292 369.615 766.418 374.687 774.476 387.431C775.476 385.534 776.499 382.818 777.227 380.855C784.462 361.361 792.613 375.485 793.039 387.869C793.252 394.079 792.108 396.871 789.403 402.446C785.153 404.423 783.794 405.203 779.949 407.881C784.321 406.872 786.361 406.255 790.56 404.674C805.221 445.14 770.758 462.827 753.008 493.154C748.788 482.67 743.132 473.826 738.698 463.518C753.983 464.075 761.247 460.934 771.749 449.75C780.308 438.905 782.955 429.508 784.479 416.199C780.204 423.977 779.187 433.139 774.927 441.277C766.108 458.124 744.836 468.071 727.366 457.806C706.851 445.752 699.064 415.999 693.371 394.457C696.541 393.178 705.181 390.205 706.666 387.693C701.134 385.945 696.438 389.539 692.17 392.464C691.052 383.587 691.119 376.824 691.78 367.936C710.159 365.32 730.846 350.519 744.19 338.02Z"/><path fill="#040202" transform="scale(1.22168 1.22176)" d="M752.402 429.154L753.383 429.663C756.346 436.045 749.974 444.54 744.243 447.315C740.562 449.098 737.76 448.206 734.235 446.885C731.316 443.307 730.796 442.438 728.758 438.283C737.03 435.937 744.625 432.752 752.402 429.154Z"/><path fill="#FEFEFE" transform="scale(1.22168 1.22176)" d="M750.683 432.075C752.989 435.163 750.18 440.435 747.312 442.432C742.652 445.677 741.249 445.876 735.852 445.028C734.022 443.025 733.602 442.628 733.913 440.08C737.125 435.856 745.381 433.899 750.683 432.075Z"/><path fill="#040202" transform="scale(1.22168 1.22176)" d="M723.812 398.815L724.721 399.691C727.503 407.38 717.534 420.18 724.17 426.338C730.551 429.135 737.963 421.661 741.783 424.537C714.14 437.027 719.383 417.089 723.812 398.815Z"/><path fill="#040202" transform="scale(1.22168 1.22176)" d="M703.658 400.792C711.372 401.677 709.941 407.1 707.924 412.534C701.31 408.983 701.101 407.313 703.658 400.792Z"/><path fill="#040202" transform="scale(1.22168 1.22176)" d="M739.85 391.48C747.061 394.093 746.011 397.93 743.807 403.849C737.047 400.588 737.531 397.618 739.85 391.48Z"/><path fill="#040202" transform="scale(1.22168 1.22176)" d="M743.676 376.014C745.009 376.254 746.003 376.69 747.26 377.167L747.476 378.234C744.548 380.212 739.715 380.683 735.475 382.676L734.839 382.98L733.571 383.905L732.632 383.516C733.404 379.257 740.105 377.142 743.676 376.014Z"/><path fill="#040202" transform="scale(1.22168 1.22176)" d="M783.905 375.825L784.448 376.226C785.02 378.206 783.695 385.201 783.333 387.666C781.077 383.345 781.152 379.815 783.905 375.825Z"/><path fill="#FDD367" transform="scale(1.22168 1.22176)" d="M997.879 754.687C999.202 757.354 996.323 826.665 996.11 836.656C949.449 858.675 903.441 883.913 856.059 905.899L853.491 877.733C865.985 867.529 877.391 856.573 889.203 845.612L936.561 801.673C947.307 791.709 960.386 779.046 971.824 770.338C977.042 766.365 991.503 758.489 997.879 754.687Z"/><path fill="#FDD367" transform="scale(1.22168 1.22176)" d="M877.76 706.303C883.062 707.297 900.835 715.189 906.365 717.566C928.665 727.148 950.978 737.275 973.086 747.343C969.088 751.14 964.461 756.278 960.602 760.367C950.851 754.161 935.838 748.894 924.917 744.642C907.971 738.044 891.398 731.758 874.643 724.629C854.679 741.811 834.039 763.909 814.332 782.063C798.571 796.581 781.648 811.048 766.638 826.071C776.3 832.337 793.552 839.869 804.417 844.719L852.575 866.141C866.492 852.072 881.221 839.813 895.726 826.453C907.649 815.472 918.823 803.752 930.924 792.867C943.989 780.74 963.725 758.678 978.843 748.267C982.053 746.057 992.932 751.246 997.035 753.035C977.953 763.137 969.931 768.282 953.768 783.081C920.142 813.868 887.102 845.29 852.991 875.525C818.872 861.303 785.567 844.911 752.324 828.763C758.162 821.291 767.965 812.027 774.866 805.236L811.307 769.7C831.576 750.073 856.628 723.713 877.76 706.303Z"/><path fill="#FEFEFE" transform="scale(1.22168 1.22176)" d="M811.69 430.711C818.281 433.308 825.704 436.918 831.887 440.409C817.502 470.499 800.028 514.414 795.882 547.758C778.598 547.078 764.549 544.266 747.689 540.811L753.382 502.4L751.807 502.355C749.802 512.973 746.946 529.519 746.423 540.388C732.446 536.625 725.39 534.53 712.175 528.978C712.602 501.179 716.418 484.772 724.239 458.146L730.408 461.248L732.37 495.179C737.538 489.687 740.112 485.925 743.876 479.357C747.668 484.955 749.51 489.725 752.805 495.01C758.933 489.714 761.486 486.928 768.924 483.704C774.245 490.697 780.153 498.845 785.918 505.34C796.737 484.696 811.971 454.545 811.69 430.711Z"/><path fill="#666365" transform="scale(1.22168 1.22176)" d="M751.807 502.355C752.31 500.488 752.123 499.633 753.331 498.914C753.717 500.705 753.699 500.589 753.382 502.4L751.807 502.355Z"/><path fill="#633D4E" transform="scale(1.22168 1.22176)" d="M749.261 305.616C781.414 304.646 796.819 337.773 798.281 365.339C798.743 374.061 797.854 380.705 796.506 389.176C793.372 373.793 783.972 358.752 774.584 381.306C771.539 377.527 766.14 372.262 762.651 368.681C751.891 357.633 749.604 348.45 746.163 334.179L745.82 333.209L744.956 333.138C731.394 349.13 709.258 363.994 688.164 366.321C670.829 355.395 667.777 338.911 679.026 321.895L679.752 321.982C685.027 326.981 686.496 327.918 693.816 326.65C705.763 324.581 713.846 316.354 724.682 311.637C732.813 308.098 740.403 306.163 749.261 305.616Z"/><path fill="#6193A8" transform="scale(1.22168 1.22176)" d="M605.896 566.942C630.077 577.297 655.214 585.31 678.835 595.752L688.943 647.528C690.817 657.411 692.927 670.498 695.635 679.992C690.626 678.006 664.789 667.511 660.867 666.931L661.604 665.324C662.831 653.35 661.562 632.478 660.36 620.294C654.814 613.128 648.01 608.602 638.954 607.061C624.369 604.58 629.621 634.904 629.569 644.199L622.5 640.699C617.251 615.596 612.23 591.761 605.896 566.942Z"/><path fill="#FEFEFE" transform="scale(1.22168 1.22176)" d="M487.005 657.099C508.489 667.861 528.163 675.943 550.43 684.998C548.601 697.266 547.171 708.254 546.28 720.615C545.926 725.526 546.77 740.417 545.972 743.505L544.716 743.618C523.383 732.763 501.093 722.505 479.533 711.803C482.855 695.013 485.445 674.106 487.005 657.099Z"/><path fill="#6193A8" transform="scale(1.22168 1.22176)" d="M632.504 756.127L632.35 658.056C632.33 643.913 631.372 623.795 632.275 610.53C639.235 603.692 653.26 615.424 658.057 620.743L657.248 622.483C656.038 626.155 656.852 660.673 656.883 667L657.176 758.556C646.034 761.255 642.67 761.313 632.504 756.127Z"/><path fill="#6193A8" transform="scale(1.22168 1.22176)" d="M628.784 731.763L629.131 732.034C630.139 733.869 629.846 753.968 629.866 757.516C636.525 760.834 663.512 767.9 662.291 754.782C660.542 755.217 661.353 755.271 659.772 754.848C659.267 751.777 659.65 739.62 659.704 735.863C679.672 746.404 700.688 756.391 719.498 768.726C722.651 770.793 721.813 776.181 718.9 777.566C710.304 781.655 677.641 797.221 669.487 796.207L668.813 795.205C671.189 789.501 679.8 786.821 685.174 784.641C697.746 780.537 711.355 777.031 722.006 769.335C712.492 771.321 679.295 784.815 668.119 789.144C642.246 776.908 609.25 761.523 584.468 747.791C599.021 743.105 614.354 737.113 628.784 731.763Z"/><path fill="#FDD367" transform="scale(1.22168 1.22176)" d="M487.807 628.281C492.494 631.048 498.329 635.772 503.111 637.968C523.042 647.12 544.926 659.884 566.066 665.316C571.231 687.454 578.36 710.874 584.651 732.829C579.691 734.378 574.933 736.19 570.069 738.001C563.051 740.772 556.537 743.219 549.409 745.684C547.939 721.721 550.271 707.063 552.795 683.359C530.565 674.27 508.903 665.649 487.58 654.529C486.429 643.707 486.784 639.05 487.807 628.281Z"/><path fill="#FDD367" transform="scale(1.22168 1.22176)" d="M752.196 831.019C759.247 833.961 771.685 840.42 778.838 843.88C803.395 855.757 826.287 866.998 851.66 877.266C851.605 885.929 852.989 897.757 853.857 906.575C842.704 903.722 819.798 890.929 808.511 885.396C792.593 877.595 773.737 869.137 758.941 859.9L752.196 831.019Z"/><path fill="#6193A8" transform="scale(1.22168 1.22176)" d="M547.762 494.099C553.192 494.256 559.447 496.93 564.563 498.823C614.764 517.402 664.287 537.363 713.488 558.41C719.16 568.557 724.412 586.026 728.234 597.448L747.529 654.994C751.402 666.392 756.239 678.887 759.541 690.519C759.994 692.114 758.31 694.343 757.331 695.865C755.298 697.542 754.638 698.153 752.263 697.399C750.309 694.992 749.824 691.6 748.813 688.651C737.003 654.22 725.115 619.824 714.12 585.12C711.763 577.681 709.338 570.002 706.135 562.895C694.207 556.095 666.023 545.289 652.429 539.879L579.22 510.456C570.428 506.967 557.359 502.392 548.689 497.998C547.603 497.448 547.84 495.514 547.762 494.099Z"/><path fill="#FEFEFE" transform="scale(1.22168 1.22176)" d="M704.915 452.217L706.234 452.689C706.177 454.874 699.155 470.05 697.878 473.658C689.822 496.424 686.896 519.71 683.322 543.345L666.971 536.549L659.135 533.429C661.879 517.378 666.663 499.871 673.004 484.848C680.221 467.747 687.796 459.072 704.915 452.217Z"/><path fill="#FEFEFE" transform="scale(1.22168 1.22176)" d="M796.576 415.634C802.124 419.078 807.064 425.547 808.766 431.879C812.576 446.059 793.501 487.768 786.075 500.073L785.004 500.304L783.178 498.144C778.823 492.287 772.01 482.26 766.075 478.769C785.284 458.754 795.5 444.237 796.576 415.634Z"/><path fill="#B88D86" transform="scale(1.22168 1.22176)" d="M922.831 684.13C923.401 684.074 923.892 684.325 924.518 684.519C926.913 690.568 925.837 716.222 925.595 724.358C910.607 717.76 895.735 711.184 880.583 704.957L879.374 704.578C874.534 705.287 870.353 709.725 866.631 713.007C866.944 705.404 867.407 697.924 867.897 690.33C891.446 691.612 900.164 690.947 922.831 684.13Z"/><path fill="#ECE6BC" transform="scale(1.22168 1.22176)" d="M659.376 668.768C670.447 672.722 681.373 677.024 692.332 681.279C690.96 694.34 688.716 707.377 686.62 720.346C686.11 722.525 686.166 722.897 684.72 724.482C680.742 724.59 663.953 715.568 659.28 713.229C659.008 699.064 658.877 682.871 659.376 668.768Z"/><path fill="#FDD367" transform="scale(1.22168 1.22176)" d="M845.71 754.554C843.359 760.033 841.463 762.039 844.153 767.766L842.358 769.023C837.03 773.074 836.541 775.562 835.03 782.084L834.52 783.05C824.36 783.72 810.064 783.341 812.655 797.919C806.535 803.021 804.661 803.481 805.614 811.505L806.72 814.181C799.616 821.727 775.383 805.949 785.152 833.169L769.724 826.235C783.062 812.534 799.558 798.707 813.575 785L814.663 784.002L845.71 754.554Z"/><path fill="#FDD367" transform="scale(1.22168 1.22176)" d="M491.232 616.562C496.123 619.958 502.27 624.209 506.941 628.143C517.804 637.292 528.852 638.318 541.837 641.815C547.191 643.256 560.067 658.253 563.546 662.498C554.29 658.835 523.856 646.314 515.762 641.542C510.2 639.515 498.955 634.251 495.261 629.801L495.811 628.593C493.121 627.527 491.658 627.25 489.853 625.016C488.836 621.906 490.051 619.751 491.232 616.562Z"/><path fill="#F2BD7E" transform="scale(1.22168 1.22176)" d="M495.811 628.593C498.043 629.148 501.468 629.973 502.984 631.783C506.837 633.579 511.359 635.788 514.205 639.017C515.727 640.369 515.218 639.56 515.762 641.542C510.2 639.515 498.955 634.251 495.261 629.801L495.811 628.593Z"/><path fill="#67552C" transform="scale(1.22168 1.22176)" d="M502.984 631.783C506.837 633.579 511.359 635.788 514.205 639.017C509.89 637.537 506.217 634.963 502.984 631.783Z"/><path fill="#6193A8" transform="scale(1.22168 1.22176)" d="M584.143 750.983C594.813 755.07 614.176 765.843 625.425 771.165C635.127 775.755 657.118 785.86 665.373 791.104C666.871 793.022 666.719 794.835 666.945 797.339C660.014 796.004 592.291 763.697 585.376 758.14C583.94 755.669 584.202 753.872 584.143 750.983Z"/><path fill="#DE8D7B" transform="scale(1.22168 1.22176)" d="M824.191 825.126C820.587 823.981 818.001 822.754 817.773 818.729C822.296 808.125 851.266 808.317 857.004 817.186C856.472 819.585 856.626 818.837 854.341 820.81L855.284 821.385L855.369 822.067C854.717 823.739 855.147 823.311 853.945 824.388C846.034 828.499 830.283 836.961 823.231 827.294L823.917 826.59L824.191 825.126Z"/><path fill="#A74A68" transform="scale(1.22168 1.22176)" d="M854.341 820.81L855.284 821.385L855.369 822.067C854.717 823.739 855.147 823.311 853.945 824.388C846.034 828.499 830.283 836.961 823.231 827.294L823.917 826.59L824.191 825.126C833.75 826.693 845.227 823.812 854.341 820.81Z"/><path fill="#2B1A24" transform="scale(1.22168 1.22176)" d="M854.341 820.81L855.284 821.385L855.369 822.067C842.039 825.98 837.786 827.744 823.917 826.59L824.191 825.126C833.75 826.693 845.227 823.812 854.341 820.81Z"/><path fill="#FDD367" transform="scale(1.22168 1.22176)" d="M539.24 625.597C542.937 628.236 546.764 635.298 550.058 638.382C557.041 644.92 566.757 650.579 574.869 655.533C573.784 661.279 572.067 665.739 569.933 671.081C567.94 665.153 567.15 663.782 562.953 659.154C559.158 654.953 551.342 645.851 546.737 643.544C534.74 637.534 525.295 637.341 512.905 630.065C522.025 628.252 530.031 626.91 539.24 625.597Z"/><path fill="#FDD367" transform="scale(1.22168 1.22176)" d="M874.385 726.935L888.763 732.215L892.501 733.737L892.541 734.383C894.084 736.072 895.805 739.169 897.741 741.386L896.332 742.278C888.807 744.897 876.974 751.832 870.729 745.839L869.353 744.736C866.158 753.668 860.615 748.942 853.094 751.566L849.672 752.245L849.046 751.68L850.912 749.677C858.136 742.159 866.796 734.213 874.385 726.935Z"/><path fill="#DE8D7B" transform="scale(1.22168 1.22176)" d="M891.433 734.455L892.541 734.383C894.084 736.072 895.805 739.169 897.741 741.386L896.332 742.278C888.807 744.897 876.974 751.832 870.729 745.839L869.353 744.736C871.779 734.285 882.779 734.837 891.433 734.455Z"/><path fill="#130C09" transform="scale(1.22168 1.22176)" d="M891.433 734.455L892.541 734.383C894.084 736.072 895.805 739.169 897.741 741.386L896.332 742.278L890.317 736.669C882.332 736.592 872.419 735.624 870.729 745.839L869.353 744.736C871.779 734.285 882.779 734.837 891.433 734.455Z"/><path fill="#F2BD7E" transform="scale(1.22168 1.22176)" d="M888.763 732.215L892.501 733.737L892.541 734.383L891.433 734.455L888.763 732.215Z"/><path fill="#DE8D7B" transform="scale(1.22168 1.22176)" d="M869.421 818.558C868.25 816.987 868.329 816.854 867.858 815.014C869.982 805.804 893.64 803.014 899.02 810.15C899.582 812.962 899.543 811.832 898.548 814.953L899.42 815.872L894.933 819.668L897.684 821.651C892.659 826.479 890.181 826.8 883.484 827.844C879.097 826.19 869.529 822.383 865.809 820.022L865.97 819.234L867.95 819.258L869.421 818.558Z"/><path fill="#A74A68" transform="scale(1.22168 1.22176)" d="M883.484 827.844C879.097 826.19 869.529 822.383 865.809 820.022L865.97 819.234L867.95 819.258C877.664 823.32 885.04 822.666 894.933 819.668L897.684 821.651C892.659 826.479 890.181 826.8 883.484 827.844Z"/><path fill="#130C09" transform="scale(1.22168 1.22176)" d="M869.421 818.558C879.465 821.857 889.749 820.765 898.548 814.953L899.42 815.872L894.933 819.668C885.04 822.666 877.664 823.32 867.95 819.258L869.421 818.558Z"/><path fill="#DE8D7B" transform="scale(1.22168 1.22176)" d="M872.499 778.206C877.34 777.623 893.905 781.104 894.413 786.325C891.108 789.873 879.542 792.395 874.211 793.908C865.66 794.151 858.873 791.974 850.617 789.884C856.54 780.22 861.535 779.213 872.499 778.206Z"/><defs><linearGradient id="gradient_0" gradientUnits="userSpaceOnUse" x1="934.99335" y1="780.24231" x2="904.15857" y2="778.42456"><stop offset="0" stop-color="#C25063"/><stop offset="1" stop-color="#CB6D6C"/></linearGradient></defs><path fill="url(#gradient_0)" transform="scale(1.22168 1.22176)" d="M903.415 780.73C903.449 778.163 903.154 776.063 904.439 773.947C906.414 773.356 911.944 776 916.321 776.241C923.168 776.619 927.922 776.183 934.712 775.708C936.623 776.622 936.358 777.323 937.329 779.791C935.727 786.85 934.283 787.424 928.96 792.26C922.104 790.375 908.561 789.266 904.382 785.824C903.253 783.743 903.43 783.2 903.415 780.73Z"/><path fill="#633D4E" transform="scale(1.22168 1.22176)" d="M937.329 779.791C935.727 786.85 934.283 787.424 928.96 792.26C922.104 790.375 908.561 789.266 904.382 785.824C903.253 783.743 903.43 783.2 903.415 780.73C912.32 783.805 929.848 787.832 937.329 779.791Z"/><path fill="#DE8D7B" transform="scale(1.22168 1.22176)" d="M900.412 789.744C910.398 789.595 916.888 790.687 926.083 794.419C921.845 797.993 913.077 802.43 907.982 805.172C900.082 805.934 890.712 804.446 882.721 803.479C887.53 796.55 893.26 793.712 900.412 789.744Z"/><path fill="#C2666E" transform="scale(1.22168 1.22176)" d="M893.499 757.426L899.171 758.832L898.383 760.603C901.455 762.542 903.228 764.182 905.948 766.569L901.508 771.766C872.962 780.702 861.047 759.014 890.866 758.516L893.499 757.426Z"/><path fill="#130C09" transform="scale(1.22168 1.22176)" d="M893.499 757.426L899.171 758.832L898.383 760.603C895.822 759.533 893.553 759.116 890.866 758.516L893.499 757.426Z"/><path fill="#DE8D7B" transform="scale(1.22168 1.22176)" d="M893.499 757.426C891.04 756.26 889.838 755.979 888.331 753.735C887.805 745.289 912.596 739.977 920.545 745.54C924.49 752.684 906.713 760.872 899.171 758.832L893.499 757.426Z"/><path fill="#DE8D7B" transform="scale(1.22168 1.22176)" d="M865.399 822.89C870.194 822.765 877.347 824.635 878.54 829.966C876.675 837.123 866.14 837.718 860.13 838.378C855.06 837.664 847.856 837.793 846.236 832.223C848.022 825.914 859.912 823.918 865.399 822.89Z"/><path fill="#DE8D7B" transform="scale(1.22168 1.22176)" d="M937.124 754.188C945.883 754.037 949.855 756.95 956.996 761.497C951.418 764.783 944.758 768.607 938.404 769.603C930.167 766.951 924.848 765.648 916.388 764.182C924.31 758.671 927.886 756.606 937.124 754.188Z"/><path fill="#C2666E" transform="scale(1.22168 1.22176)" d="M790.093 817.937C799.62 816.432 807.815 819.496 816.388 822.993C817.596 824.591 818.994 825.982 819.046 827.909C817.224 829.779 815.454 829.792 812.632 830.632C806.576 832.218 783.732 830.766 784.751 821.677C786.12 819.481 787.708 819.063 790.093 817.937Z"/><path fill="#C2666E" transform="scale(1.22168 1.22176)" d="M853.978 752.777C864.308 752.308 866.899 754.081 876.134 758.621C872.169 762.223 871.448 765.229 866.503 766.521C860.743 767.013 844.323 769.26 844.653 760.229C846.651 756.205 850.102 754.784 853.978 752.777Z"/><path fill="#DE8D7B" transform="scale(1.22168 1.22176)" d="M842.799 838.208C849.578 838.374 858.264 839.84 863 845.155C863.673 847.646 863.801 846.472 862.53 848.784C860.315 850.614 857.503 850.823 854.657 851.329C848.802 851.656 835.658 852.055 834.556 844.215C836.23 840.444 838.959 839.846 842.799 838.208Z"/><path fill="#C2666E" transform="scale(1.22168 1.22176)" d="M827.021 785.12C834.502 784.666 839.345 787.968 845.472 791.61C840.418 795.487 839.024 796.119 832.772 797.322C826.877 798.164 818.366 799.406 814.325 793.952C813.115 787.568 822.338 785.884 827.021 785.12Z"/><path fill="#DE8D7B" transform="scale(1.22168 1.22176)" d="M849.856 791.819C854.507 792.669 872.041 795.498 871.658 801.524C869.901 803.45 868.758 803.476 866.221 804.134C859.829 806.016 848.697 806.441 843.919 801.052C842.419 796.017 846.078 794.227 849.856 791.819Z"/><path fill="#A74A68" transform="scale(1.22168 1.22176)" d="M784.562 828.663C792.356 830.573 796.93 833.551 806.31 833.495C812.522 833.458 817.346 829.768 821.589 831.107L821.758 832.182L820.184 834.273C808.737 844.702 792.493 841.689 784.562 828.663Z"/><path fill="#C2666E" transform="scale(1.22168 1.22176)" d="M825.174 832.06C827.007 832.499 829.626 833.623 831.452 834.338C835.645 833.422 837.696 832.675 841.728 834.434L842.186 835.145C841.071 836.355 840.391 836.761 838.49 836.957C832.977 840.883 834.411 842.32 830.551 846.787C827.287 850.565 819.07 845.124 819.97 839.554C820.643 835.393 821.984 835 825.174 832.06Z"/><path fill="#A74A68" transform="scale(1.22168 1.22176)" d="M831.452 834.338C835.645 833.422 837.696 832.675 841.728 834.434L842.186 835.145C841.071 836.355 840.391 836.761 838.49 836.957C836.729 836.012 833.451 835.017 831.452 834.338Z"/><path fill="#C2666E" transform="scale(1.22168 1.22176)" d="M840.935 852.707C851.951 854.465 856.863 852.84 867.352 849.689C864.669 852.558 859.13 859.262 854.856 858.385C853.563 859.716 852.41 860.977 851.177 862.365C846.299 862.226 835.482 857.076 833.104 852.706L833.717 851.604C836.363 850.705 838.178 851.745 840.935 852.707Z"/><path fill="#A74A68" transform="scale(1.22168 1.22176)" d="M840.935 852.707C851.951 854.465 856.863 852.84 867.352 849.689C864.669 852.558 859.13 859.262 854.856 858.385C851.931 855.515 847.047 857.993 840.935 852.707Z"/><path fill="#DE8D7B" transform="scale(1.22168 1.22176)" d="M912.597 766.881C917.722 766.601 930.878 767.43 933.697 771.963C932.345 773.974 932.323 773.424 929.377 774.392L927.95 774.445C922.566 774.601 910.379 774.53 906.252 770.593L906.4 769.251C908.488 767.498 909.918 767.454 912.597 766.881Z"/><path fill="#A74A68" transform="scale(1.22168 1.22176)" d="M876.766 802.42L875.732 805.263C873.377 805.613 870.809 808.145 868.793 809.762C867.64 810.672 865.379 812.378 864.055 812.937C858.945 815.093 847.341 812.711 844.931 807.488L845.616 806.35C848.401 805.564 852.014 807.012 855.007 807.86C862.107 807.176 869.94 804.564 876.766 802.42Z"/><path fill="#633D4E" transform="scale(1.22168 1.22176)" d="M876.766 802.42L875.732 805.263C873.377 805.613 870.809 808.145 868.793 809.762C866.759 808.77 857.949 808.154 855.007 807.86C862.107 807.176 869.94 804.564 876.766 802.42Z"/><path fill="#FEFEFE" transform="scale(1.22168 1.22176)" d="M732.577 461.639C737.377 463.185 740.417 471.745 743.075 476.871C741.75 479.152 740.287 482.119 739.036 484.502L734.8 490.351C733.772 481.087 733.17 470.953 732.577 461.639Z"/><path fill="#C2666E" transform="scale(1.22168 1.22176)" d="M855.466 769.332C859.956 768.69 867.271 767.593 871.138 770.557C869.947 772.056 866.377 772.219 864.56 771.903C866.795 773.266 867.671 773.223 868.328 775.255C865.772 777.829 861.051 777.582 857.349 777.825C855.538 776.943 856.207 777.582 855.216 775.902L854.364 776.879L851.417 773.332L851.879 772.144C850.538 770.964 850.596 771.073 849.874 769.447C851.513 768.655 853.388 769.162 855.466 769.332Z"/><path fill="#633D4E" transform="scale(1.22168 1.22176)" d="M855.466 769.332C859.956 768.69 867.271 767.593 871.138 770.557C869.947 772.056 866.377 772.219 864.56 771.903C860.289 771.216 859.432 771.02 855.466 769.332Z"/><path fill="#633D4E" transform="scale(1.22168 1.22176)" d="M851.879 772.144C853.658 773.615 854.256 773.89 855.216 775.902L854.364 776.879L851.417 773.332L851.879 772.144Z"/><path fill="#A74A68" transform="scale(1.22168 1.22176)" d="M838.168 798.518C839.959 798.18 839.154 798.022 840.672 798.944L840.576 800.509C836.924 805.717 830.34 808.121 824.157 806.619C821.83 804.922 820.341 803.787 819.63 801.143C822.294 798.482 832.429 799.39 838.168 798.518Z"/><path fill="#DE8D7B" transform="scale(1.22168 1.22176)" d="M844.153 767.766C847.445 769.731 848.54 770.762 851.417 773.332L854.364 776.879L853.32 778.203C848.863 779.16 842.936 780.85 838.685 779.455C837.213 774.398 841.941 773.57 842.358 769.023L844.153 767.766Z"/><path fill="#C2666E" transform="scale(1.22168 1.22176)" d="M896.415 787.826L897.04 788.714C894.306 793.542 881.491 800.304 875.643 800.52C874.134 798.747 873.872 798.427 872.781 796.392C875.465 794.134 891.918 789.249 896.415 787.826Z"/><path fill="#A74A68" transform="scale(1.22168 1.22176)" d="M805.614 811.505C811.115 808.287 820.816 808.213 827.334 807.946C822.384 811.953 817.122 818.055 811.542 817.646C808.339 816.153 808.034 814.931 806.72 814.181L805.614 811.505Z"/><path fill="#C2666E" transform="scale(1.22168 1.22176)" d="M872.819 772.913C875.569 772.866 883.443 775.797 888.206 775.881C893.622 775.977 895.916 774.468 900.756 774.451C901.691 776.128 901.324 779.025 901.336 781.254C897.673 782.225 876.298 777.053 873.073 774.849L872.819 772.913Z"/><path fill="#633D4E" transform="scale(1.22168 1.22176)" d="M924.626 749.852L925.927 751.668C926.337 759.153 914.094 763.653 907.909 764.505C906.989 763.523 906.938 763.352 906.18 762.235C907.642 758.662 918.192 755.415 923.902 750.482L924.626 749.852Z"/><path fill="#A74A68" transform="scale(1.22168 1.22176)" d="M878.771 835.316L879.774 835.382L880.433 836.358C879.336 840.341 872.721 845.825 869.074 847.592L868.004 846.89C866.503 844.799 864.043 842.232 862.277 840.263C868.371 839.163 873.053 837.601 878.771 835.316Z"/><path fill="#FDD367" transform="scale(1.22168 1.22176)" d="M813.198 798.627C815.809 799.247 819.603 803.104 820.152 805.918C818.919 807.447 819.114 806.963 816.531 807.395C813.226 808.026 810.541 809.14 807.901 806.669L807.881 804.806C808.952 802.043 810.987 800.578 813.198 798.627Z"/><path fill="#A74A68" transform="scale(1.22168 1.22176)" d="M835.03 782.084L835.793 782.122C840.057 782.309 846.934 780.769 849.3 781.27C850.482 784.149 849.977 787.858 847.148 789.525C843.955 788.799 838.898 784.718 834.52 783.05L835.03 782.084Z"/><path fill="#633D4E" transform="scale(1.22168 1.22176)" d="M954.853 765.463C955.333 768.057 945.071 776.637 941.974 777.715C940.805 774.968 940.458 774.6 941.323 772.364C944.69 769.185 950.366 767.344 954.853 765.463Z"/><path fill="#3B5E78" transform="scale(1.22168 1.22176)" d="M658.057 620.743C662.784 632.361 656.954 658.093 661.604 665.324L660.867 666.931C654.88 660.041 661.336 629.214 657.248 622.483L658.057 620.743Z"/><path fill="#FDD367" transform="scale(1.22168 1.22176)" d="M816.491 841.216C818.689 843.026 822.398 846.425 820.366 849.318C818.24 849.732 816.981 848.83 814.942 847.89L805.023 842.741C808.944 842.565 812.63 841.864 816.491 841.216Z"/><path fill="#C2666E" transform="scale(1.22168 1.22176)" d="M917.925 800.992L918.496 801.512C918.121 804.17 914.718 806.525 912.597 807.969C909.142 810.319 908.278 810.597 904.118 809.686L902.774 808.308C903.359 806.344 910.025 805.407 912.157 804.326C914.317 803.231 915.922 802.33 917.925 800.992Z"/><path fill="#633D4E" transform="scale(1.22168 1.22176)" d="M892.501 733.737C896.045 736.276 905.531 737.78 906.647 740.554C904.405 741.757 900.219 741.732 897.741 741.386C895.805 739.169 894.084 736.072 892.541 734.383L892.501 733.737Z"/><path fill="#633D4E" transform="scale(1.22168 1.22176)" d="M885.742 747.883L886.627 748.229C885.915 751.001 885.173 753.744 883.425 756.017L881.792 755.735C879.661 753.966 878.457 753.308 878.172 750.892C879.731 749.185 883.306 748.57 885.742 747.883Z"/><path fill="#A74A68" transform="scale(1.22168 1.22176)" d="M924.243 746.742C927.512 747.922 934.819 750.169 936.456 752.938C933.806 753.688 932.486 754.307 929.768 753.865C927.047 752.44 925.866 749.541 924.243 746.742Z"/><path fill="#C2666E" transform="scale(1.22168 1.22176)" d="M867.948 749.069C872.215 749.823 876.352 752.833 877.83 756.98C873.49 755.394 867.995 754.264 867.948 749.069Z"/><path fill="#633D4E" transform="scale(1.22168 1.22176)" d="M899.42 815.872C901.279 814.405 901.697 813.806 903.934 813.503C904.078 816.424 899.771 819.808 897.684 821.651L894.933 819.668L899.42 815.872Z"/><path fill="#DE8D7B" transform="scale(1.22168 1.22176)" d="M840.035 803.884C840.946 803.765 840.757 803.865 841.742 804.2L842.248 805.919C840.661 807.92 839.583 807.742 836.808 808.642C835.328 808.381 835.22 808.51 834.092 807.576C835.007 805.825 838.069 804.797 840.035 803.884Z"/><path fill="#ECE6BC" transform="scale(1.22168 1.22176)" d="M880.652 829.523C883.624 829.565 884.952 829.066 887.135 830.458L886.948 832.182C885.68 832.921 884.77 833.304 883.446 833.879C881.463 832.935 881.678 832.065 880.652 829.523Z"/><path fill="#633D4E" transform="scale(1.22168 1.22176)" d="M894.725 782.065C900.151 783.09 900.609 782.702 902.362 788.083C898.563 787.3 896.998 784.954 894.725 782.065Z"/><path fill="#A74A68" transform="scale(1.22168 1.22176)" d="M937.664 774.057C940.94 776.165 940.885 777.355 941.278 781.191L939.432 780.902C937.817 778.852 937.935 776.745 937.664 774.057Z"/><path fill="#C2666E" transform="scale(1.22168 1.22176)" d="M823.014 850.376C826 850.155 827.758 849.622 830.197 850.836L830.593 852.816C827.89 853.784 825.148 851.834 823.014 850.376Z"/><path fill="#C2666E" transform="scale(1.22168 1.22176)" d="M876.766 802.42C879.29 801.609 878.507 801.444 880.515 802.238C880.231 804.119 880.519 803.43 878.612 804.913C877.815 805.023 876.484 805.255 875.732 805.263L876.766 802.42Z"/><path fill="#FEFEFE" transform="scale(1.22168 1.22176)" d="M765.334 479.305L766.685 480.489C766.805 482.75 766.605 482.212 764.992 484.572L763.518 484.013L763.103 482.702L765.334 479.305Z"/><path fill="#C2666E" transform="scale(1.22168 1.22176)" d="M860.902 815.953C861.384 815.375 862.161 815.134 862.885 815.338C863.61 815.541 864.148 816.151 864.259 816.895C864.37 817.64 864.034 818.38 863.4 818.786C862.606 819.294 861.559 819.148 860.936 818.441C860.312 817.734 860.297 816.677 860.902 815.953Z"/><path fill="#633D4E" transform="scale(1.22168 1.22176)" d="M855.284 821.385C857.068 821.062 857.624 820.598 858.854 821.27C856.89 823.143 856.47 823.22 853.945 824.388C855.147 823.311 854.717 823.739 855.369 822.067L855.284 821.385Z"/><path fill="#ECE6BC" transform="scale(1.22168 1.22176)" d="M864.466 983.551L952.67 937.078C975.649 925.184 1000.79 913.342 1022.85 900.123C1023.64 918.656 1022.2 939.294 1023.25 957.283L1023.06 959.342L1023.16 1083.13C1023.17 1091.61 1024.33 1122.04 1022.87 1128.62L1023.1 1131.39C1023.14 1145.8 1021.88 1256.5 1024 1262.14L1024 1302.1C1022.53 1310.8 1023.82 1322.98 1023.06 1332.09C1016.26 1333.12 976.888 1354.52 968.514 1358.95L864.653 1414.25C863.306 1364.45 864.353 1311.48 864.381 1261.4L864.466 983.551Z"/><path fill="#040202" transform="scale(1.22168 1.22176)" d="M900.727 1193.91C912.264 1189.19 932.528 1177.48 944.194 1171.15L1022.87 1128.62L1023.1 1131.39C1019.87 1133.4 1016.33 1134.95 1013.01 1136.8C976.8 1156.95 939.604 1175.69 903.396 1195.76C903.458 1238.47 902.665 1280.88 903.332 1323.64C918.231 1316.03 1015.68 1260.63 1021.94 1260.19C1019.29 1263.38 994.37 1277.27 990.221 1279.16C979.409 1284.1 906.752 1327.85 901.516 1324.66C899.847 1319.76 900.685 1285.44 900.693 1277.51L900.727 1193.91Z"/><path fill="#040202" transform="scale(1.22168 1.22176)" d="M1023.25 957.283L1023.06 959.342C1010.79 965.165 992.739 975.696 980.293 982.367L902.866 1023.25C904.187 1055.19 903.368 1090.9 903.178 1123.12C931.425 1109.17 958.933 1093.41 986.936 1078.99C998.689 1072.94 1011.85 1064.72 1024 1060.23C1018.78 1065.59 1011.73 1068.75 1005.14 1072.2C970.308 1090.46 935.743 1109.31 900.629 1127.02L900.557 1021.64C927.437 1007.74 953.987 992.919 980.89 979.06C994.196 972.205 1009.58 963.074 1023.25 957.283Z"/><path fill="#DE8D7B" transform="scale(1.22168 1.22176)" d="M1022.93 855.239C1023.4 869.171 1022.84 884.678 1022.88 898.762C1014.01 901.087 991.219 914.667 981.571 919.671L864.457 981.148C864.266 966.183 864.346 951.148 864.356 936.177C907.48 913.415 951.056 891.77 994.656 869.946C1004.11 865.215 1013.89 860.689 1022.93 855.239Z"/><path fill="#ECE6BC" transform="scale(1.22168 1.22176)" d="M370.407 741.902C378.959 744.789 408.952 760.437 418.455 765.114L519.321 814.777L862.232 983.886L862.188 1414.65C857.38 1411.97 852.054 1409.3 847.153 1406.73L346.428 1141.15C345.489 1127.58 346.11 1109.41 346.136 1095.4L346.191 1015.14L346.006 759.267C359.1 755.864 362.253 752.391 370.407 741.902Z"/><path fill="#040202" transform="scale(1.22168 1.22176)" d="M390.01 969.138C397.916 971.605 417.322 983.12 425.969 987.569L515.097 1033.29L825.013 1191.29L825.059 1288.21C825.046 1300.94 825.769 1315.6 825.412 1327.88C807.919 1320.53 785.323 1307.2 767.988 1297.97L670.815 1246.8L545.209 1180.83C493.423 1153.96 441.572 1127.51 390.395 1099.46C391.72 1074.18 390.565 1049.94 390.467 1024.7C390.392 1005.46 391.409 988.429 390.01 969.138Z"/><path fill="#ECE6BC" transform="scale(1.22168 1.22176)" d="M393.004 973.471C411.641 982.104 429.689 992.363 448.029 1001.65L596.228 1077.71L741.261 1151.51C768.299 1165.21 796.196 1178.7 822.759 1193.1L822.948 1323.96C807.683 1317.64 790.926 1307.44 776.023 1299.47L697.072 1257.85C596.268 1204.93 494.459 1149.92 393.072 1098.41L393.004 973.471Z"/><path fill="#040202" transform="scale(1.22168 1.22176)" d="M390.662 803.917C405.476 809.943 424.843 820.559 439.7 827.939L531.268 873.299L825.235 1019.14L825.266 1092.31C825.34 1104.04 826.585 1119.54 824.891 1130.65C813.239 1125.94 796.698 1116.59 785.019 1110.56L711.771 1072.97L503.041 967.038C467.327 948.891 426.068 926.507 390.289 909.974C391.323 897.041 390.651 880.393 390.519 867.229C390.307 845.959 390.167 825.204 390.662 803.917Z"/><path fill="#ECE6BC" transform="scale(1.22168 1.22176)" d="M392.899 807.48C405.319 812.424 423.708 822.706 436.468 829.042L522.949 871.782L822.912 1020.49L822.971 1127.18C807.418 1120.45 790.39 1110.56 775.009 1102.62L688.401 1058.45L393.099 908.552C392.443 874.884 392.76 841.159 392.899 807.48Z"/><path fill="#A1C49E" transform="scale(1.22168 1.22176)" d="M155.197 785.172C198.675 800.51 239.829 804.447 284.18 790.666C284.347 803.576 286.968 819.158 288.387 832.149C290.391 848.434 291.449 864.741 292.857 881.084C298.515 946.745 301.499 1012.49 305.466 1078.23C306.659 1098 313.007 1118.07 314.824 1137.85C315.681 1147.17 313.098 1155.53 313.72 1164.76C315.573 1187.23 319.144 1209.62 321.619 1231.99C324.933 1261.93 326.926 1290.31 333.113 1319.92C329.568 1322.53 325.379 1324.95 321.592 1327.26C305.931 1334.74 287.747 1332.3 272.126 1326.17C261.478 1303.97 255.996 1282.09 249.152 1258.54C237.27 1219.72 228.686 1178.98 215.893 1140.53C196.547 1082.38 172.888 1025.68 152.348 967.827C157.8 965.305 160.416 963.865 165.488 960.757C165.348 946.247 162.373 929.992 161.13 915.291C158.86 889.301 156.945 863.264 155.359 837.221C154.746 827.151 152.959 817.116 152.442 807.143C152.102 800.58 154.005 791.711 155.197 785.172Z"/><path fill="#040202" transform="scale(1.22168 1.22176)" d="M187.685 989.373C195.388 994.432 217.287 1030.19 224.47 1040.01C234.657 1053.93 245.254 1067.86 256.803 1080.69C263.849 1088.51 271.319 1096.14 279.058 1103.29C285.795 1109.5 298.141 1117.44 302.658 1124.89C301.179 1124.73 300.162 1124.42 298.883 1123.63C267.988 1104.62 226.349 1046.93 204.455 1015.91C199.117 1008.35 189.88 998.339 187.685 989.373Z"/><path fill="#040202" transform="scale(1.22168 1.22176)" d="M164.964 979.991C166.825 980.867 167.757 982.407 168.856 984.07C183.398 1006.08 196.332 1029.18 210.499 1051.44C216.336 1060.6 224.838 1069.41 229.169 1079.3C228.267 1079 227.462 1078.74 226.686 1078.17C219.242 1072.73 166.335 986.536 164.964 979.991Z"/><path fill="#040202" transform="scale(1.22168 1.22176)" d="M259.659 929.797L260.096 930.233C261.728 937.067 237.611 947.036 232.252 948.649C209.586 955.472 190.075 950.385 169.861 939.522L168.964 938.744L169.191 937.707C171.593 937.292 184.676 944.569 189.124 945.925C215.762 954.044 238.271 948.081 259.659 929.797Z"/><path fill="#FDD367" transform="scale(1.22168 1.22176)" d="M250.083 512.399C255.786 514.326 279.856 521.581 281.827 527.143C279.883 528.468 277.014 526.707 271.203 529.677C258.668 536.082 251.487 548.382 246.184 560.94C245.14 563.413 245.348 565.666 246.577 567.912L247.414 567.897C249.039 558.819 253.407 550.42 258.915 543.089C263.112 537.501 269.676 530.355 277.082 529.537C280.169 529.195 283.055 530.271 285.418 532.228C296.584 541.48 325.488 631.403 333.803 651.34C337.412 659.994 341.359 668.464 345.56 676.845C349.382 684.47 353.964 692.518 356.483 700.688C359.249 709.657 358.773 719.506 359.625 728.763L360.496 729.158C362.417 726.718 361.655 721.999 361.843 718.939C363.064 699.112 351.471 685.141 343.471 668.238L344.153 668.548C394.897 691.783 375.566 775.458 328.463 751.104C290.038 731.238 259.813 678.894 246.278 638.406C244.553 632.061 243.182 626.491 240.6 620.424C242.582 648.619 259.228 675.842 272.682 699.845C254.487 687.82 240.824 670.198 227.859 653.061C235.3 669.963 251.602 685.975 265.543 698.076C267.027 699.54 273.251 701.784 274.242 702.875C285.82 715.622 295.379 730.032 309.1 740.781C311.037 742.298 314.446 745.103 314.888 747.508C312.994 752.84 307.926 755.594 303.198 758.26C260.877 782.131 204.911 777.248 159.872 764.129C174.774 694.518 196.201 619.5 226.487 554.872C232.633 541.757 242.691 525.102 250.083 512.399Z"/><path fill="#DE8D7B" transform="scale(1.22168 1.22176)" d="M381.519 701.094C393.821 707.613 408.493 714.308 421.222 720.53L501.273 759.635L745.151 878.79L811.63 911.309C828.464 919.436 845.263 927.018 861.618 936.111C861.977 951.114 861.958 966.214 862.02 981.229L854.944 977.823L525.82 815.301L426.914 766.777C409.119 758.04 389.413 747.153 371.208 740.123C375.31 728.541 378.613 713.206 381.519 701.094Z"/><path fill="#FDD367" transform="scale(1.22168 1.22176)" d="M148.274 478.283C163.339 483.966 178.399 489.567 193.736 494.476C206.172 498.457 218.649 501.821 230.978 506.15C184.246 585.555 162.661 670.57 143.517 759.912C140.214 758.326 130.263 753.524 128.054 750.219C116.795 733.373 113.729 689.013 111.834 668.785C111.482 665.031 115.321 635.483 115.74 630.896C118.344 602.443 122.579 573.037 123.341 544.844C122.736 540.137 123.93 536.496 122.914 531.735C114.575 549.392 109.486 585.517 104.406 605.301L102.056 604.306C101.252 594.175 101.611 576.888 102.88 566.762C107.953 526.279 117.339 503.809 148.274 478.283Z"/><path fill="#130C09" transform="scale(1.22168 1.22176)" d="M122.914 531.735L123.286 530.577C124.533 532.728 123.842 541.988 123.341 544.844C122.736 540.137 123.93 536.496 122.914 531.735Z"/><path fill="#633D4E" transform="scale(1.22168 1.22176)" d="M248.655 290.526C267.086 289.941 285.779 300.343 299.436 311.971C344.196 317.639 356.587 368.644 325.867 398.33C329.606 364.203 328.703 350.755 303.651 325.387C300.825 352.142 295.993 381.181 267.92 392.259C261.905 374.844 250.445 375.437 241.454 390.212C235.734 399.613 236.926 409.834 239.613 420.047C225.779 445.672 199.552 466.485 175.953 438.393C156.836 415.636 157.239 391.142 159.943 363.766C164.151 361.875 168.596 359.498 172.735 357.391C170.789 364.408 167.022 382.252 168.844 388.755C168.653 396.991 173.048 410.998 177.526 417.787C186.986 432.13 196.802 438.642 212.727 442.73C199.302 435.954 188.338 431.802 179.639 418.519C165.737 397.292 169.012 379.927 173.499 357.037C177.011 354.231 179.164 351.756 183.72 352.905C186.848 356.078 185.389 367.742 185.488 372.6C185.926 394.005 198.414 417.976 219.921 424.77C219.918 424.972 203.096 412.564 200.69 409.809C186.145 393.158 186.494 374.678 187.056 354.138C192.151 354.904 195.278 355.009 200.37 355.156C200.488 362.046 203.502 373.465 206.131 380.074C211.776 394.263 217.428 406.646 231.806 413.25C209.445 394.176 207.535 382.871 200.236 355.248C235.077 348.733 248.06 323.92 248.655 290.526Z"/><path fill="#DE8D7B" transform="scale(1.22168 1.22176)" d="M74.2292 782.019C81.6089 790.458 86.9786 796.12 97.3011 801.27C112.398 808.802 128.657 814.166 144.255 820.635C140.923 838.644 117.018 969.387 111.945 975.195C85.7736 968.428 58.4546 943.901 40.3571 924.676C41.8325 884.092 58.9941 821.19 74.2292 782.019Z"/><path fill="#A1C49E" transform="scale(1.22168 1.22176)" d="M203.216 1113.01C209.459 1118.07 243.56 1246.59 248.745 1265.22C245.294 1273.57 241.66 1281.83 238 1290.08C226.045 1298.7 214.332 1306.08 199.448 1308.36C197.473 1308.49 195.567 1308.29 193.632 1307.9C177.468 1304.68 163.37 1291.6 154.409 1278.38C158.483 1261.87 161.599 1245.14 165.865 1228.64C176.013 1189.4 188.63 1150.83 203.216 1113.01Z"/><path fill="#A1C49E" transform="scale(1.22168 1.22176)" d="M310.725 778.611C314.259 783.157 315.019 807.653 315.795 814.728C323.612 886.011 325.413 957.461 325.246 1029.11C325.209 1045.02 324.939 1060.79 324.142 1076.7C323.604 1087.43 323.105 1098.38 323.379 1109.11C323.659 1116.84 327.824 1126.17 328.419 1134.36C329.148 1144.39 326.702 1153.54 327.398 1163.51C328.397 1177.84 330.317 1192.13 331.472 1206.45C334.312 1241.64 337.609 1276.16 342.051 1311.2C340.001 1313.8 337.463 1316.41 335.19 1318.86C334.136 1314.86 333.563 1310.68 332.915 1306.59C329.23 1281.68 327.104 1256.15 324.044 1231.12C321.25 1208.27 317.897 1185.3 315.973 1162.37C315.329 1154.7 318.107 1144.95 317.239 1136.77C315.077 1116.37 309.316 1096.92 307.74 1076.4C305.458 1046.7 304.728 1016.96 302.931 987.219C298.928 921.012 293.763 856.072 286.218 790.181C296.041 786.366 301.817 784.286 310.725 778.611Z"/><path fill="#633D4E" transform="scale(1.22168 1.22176)" d="M186.143 238.949C197.983 237.988 206.754 238.089 217.424 244.147C245.872 260.267 254.778 299.859 238.525 327.632C230.413 341.493 218.94 348.824 203.684 352.786C199.576 353.018 194.914 353.369 190.876 352.588C134.739 341.737 124.089 250.704 186.143 238.949Z"/><path fill="#2B1A24" transform="scale(1.22168 1.22176)" d="M205 272.345C211.084 271.937 214.292 272.774 219.633 276.623C229.89 283.793 232.47 310.942 215.529 310.924C199.978 310.907 199.589 289.707 213.981 291.846L214.113 292.822C210.572 294.447 205.635 296.14 204.453 300.407C202.932 303.161 211.193 309.769 213.111 309.58C241.851 306.749 218.827 255.7 195.202 280.472C182.166 296.913 188.386 322.137 209.631 327.512C219.558 330.024 226.759 323.803 234.608 318.597C204.86 354.134 160.736 293.476 205 272.345Z"/><path fill="#2B1A24" transform="scale(1.22168 1.22176)" d="M189.812 248.675L189.994 248.849C190.111 251.562 139.266 272.655 175.051 333.47C171.858 332.295 167.315 324.436 165.974 321.25C159.809 306.596 159.063 289.163 165.129 274.359C170.381 261.541 177.226 254.135 189.812 248.675Z"/><path fill="#ECE6BC" transform="scale(1.22168 1.22176)" d="M305.667 330.09C310.602 333.258 316.428 341.702 318.673 347.071C327.991 369.358 327.328 386.048 319.29 407.754C320.785 413.691 322.916 419.592 324.413 425.569C327.071 436.185 319.015 435.14 311.672 436.678C308.468 439.355 314.703 448.74 299.037 442.531C294.808 440.856 291.152 440.588 289.439 435.845C290.567 430.775 297.184 428.222 301.642 423.061L302.199 422.407C291.664 426.992 284.35 432.298 285.577 445.43C286.253 452.669 290.484 457.806 296.035 462.204C291.542 472.199 289.423 479.728 276.343 476.761C263.46 473.837 253.301 467.662 244.028 458.459C246.444 468.43 247.385 478.206 248.943 488.357L239.738 484.707C222.38 477.915 205.069 471.926 187.324 466.247C188.878 462.123 190.478 456.536 191.846 452.241C217.671 456.477 228.16 443.198 240.209 422.749C243.292 426.634 246.841 431.23 251.702 432.372C254.05 431.925 253.37 432.366 255.041 430.924C253.908 429.325 250.481 429.071 247.731 428.014C223.45 402.912 259.395 358.518 265.084 396.009C296.32 385.819 301.402 358.518 305.667 330.09Z"/><path fill="#040202" transform="scale(1.22168 1.22176)" d="M251.026 390.567C253.513 390.556 259.483 390.704 260.258 393.49C256.154 395.084 254.357 393.271 249.729 394.731C246.134 398.81 247.817 411.033 255.687 411.007C260.571 407.057 253.823 404.107 253.534 400.854L255.616 400.054C261.367 405.897 258.156 404.54 259.795 411.793C260.082 413.066 263.073 412.75 264.126 415.214L263.396 415.998C259.476 415.796 257.502 413.4 253.93 412.589C241.781 409.831 245.886 397.521 251.026 390.567Z"/><path fill="#2B1A24" transform="scale(1.22168 1.22176)" d="M307.531 380.322C312.163 379.983 315.765 379.249 318.643 383.682L318.175 385.138C315.468 386.161 315.109 385.587 311.983 385.031C308.035 386.691 305.624 388.154 301.808 385.806L301.651 384.319C303.142 381.944 304.919 381.508 307.531 380.322Z"/><path fill="#040202" transform="scale(1.22168 1.22176)" d="M302.676 399.562C305.943 399.571 306.766 399.564 308.314 402.521C308.283 405.188 307.611 405.863 306.118 408.132C304.813 406.683 305.269 407.56 305.189 405.215C304.258 403.576 303.839 402.612 302.285 401.523L302.676 399.562Z"/><path fill="#ECE6BC" transform="scale(1.22168 1.22176)" d="M395.988 543.733C408.929 550.166 392.119 579.457 402.082 581.819C414.014 577.974 423.595 555.154 430.807 545.24L432.217 545.155C434.546 548.073 432.564 557.498 432.677 561.238C433.295 581.715 428.216 595.846 410.557 607.368C407.629 609.279 403.366 612.862 402.081 616.193C395.114 633.951 390.869 655.61 386.65 674.144L376.684 710.345C372.297 688.126 364.799 675.422 343.742 666.352C355.094 643.418 365.839 620.269 376.548 597.025C377.911 594.065 376.997 590.187 377.988 586.738C382.297 571.741 385.836 555.861 395.988 543.733Z"/><path fill="#DE8D7B" transform="scale(1.22168 1.22176)" d="M233.133 506.684L247.953 511.634C240.184 524.706 231.964 538.432 225.297 552.075C198.572 606.765 181.464 665.949 166.888 724.85C160.334 751.334 153.864 777.387 150.041 804.367C149.927 804.805 149.457 805.742 149.248 806.196C145.85 807.24 140.175 803.545 137.029 801.867C142.367 780.402 146.273 757.151 151.262 735.315C170.265 652.148 189.369 580.341 233.133 506.684Z"/><path fill="#A1C49E" transform="scale(1.22168 1.22176)" d="M375.94 1346.18C383.064 1345.44 392.038 1344.93 398.373 1348.85C401.558 1350.82 404.377 1353.73 405.208 1357.46C404.634 1360.18 402.237 1362 400.152 1363.66C387.137 1374.04 371.241 1380.53 356.615 1388.23C345.826 1393.91 334.709 1401.47 322.85 1404.57C314.958 1406.63 306.709 1406.39 298.683 1405.47C291.069 1403.1 286.281 1399.33 280.802 1393.62C280.841 1383.72 281.817 1373.76 283.134 1363.96C295.119 1371.21 311.072 1377.04 325.19 1374.76C331.382 1373.75 337.748 1371.15 341.473 1365.87C345.332 1360.39 345.543 1354.34 344.517 1347.96L375.94 1346.18Z"/><path fill="#DE8D7B" transform="scale(1.22168 1.22176)" d="M150.35 814.184C151.646 815.465 152.092 820.098 152.212 821.933C155.21 867.658 157.405 913.934 163.343 959.408C151.005 966.792 141.324 969.097 127.791 972.914C123.863 973.755 119.796 974.401 115.828 975.08C120.91 944.054 129.49 911.541 135.232 880.364C138.239 864.034 143.331 827.122 150.35 814.184Z"/><path fill="#A1C49E" transform="scale(1.22168 1.22176)" d="M146.658 1326.66C158.971 1335.29 172.575 1345.63 188.387 1345.12C201.385 1344.7 210.548 1337.9 219.064 1328.76C230.983 1334.24 243.714 1332.13 254.69 1340.15C250.124 1347.96 245.177 1351.87 237.384 1356.37C219.896 1364.13 202.734 1364.4 184.336 1367.92C177.011 1369.31 170.055 1372.39 162.715 1373.78C154.3 1375.36 146.951 1373.1 139.997 1368.25C136.048 1365.5 132.738 1361.8 131.978 1356.88C130.351 1346.33 140.953 1334.52 146.658 1326.66Z"/><path fill="#633D4E" transform="scale(1.22168 1.22176)" d="M134.576 287.327C136.272 287.198 137.881 287.02 139.58 287.108L140.695 287.168C146.666 293.028 135.075 326.567 178.724 351.332C160.268 363.343 139.98 372.115 119.832 357.037C102.484 344.054 99.3511 316.027 112.932 299.37C117.714 293.505 126.965 288.007 134.576 287.327Z"/><path fill="#422F2D" transform="scale(1.22168 1.22176)" d="M134.576 287.327C136.272 287.198 137.881 287.02 139.58 287.108C136.608 287.765 137.076 288.123 134.576 287.327Z"/><path fill="#2B1A24" transform="scale(1.22168 1.22176)" d="M134.8 303.678C135.389 306.492 132.386 313.207 132.924 317.106C134.217 326.455 139.176 332.712 148.257 335.456C152.361 336.695 154.56 335.678 157.115 337.923C138.603 340.332 124.411 319.158 134.8 303.678Z"/><path fill="#2B1A24" transform="scale(1.22168 1.22176)" d="M117.279 307.869C118.276 310.96 117.58 318.015 117.786 321.554C118.115 329.774 122.348 336.425 127.986 342.138C130.094 344.273 132.315 345.69 134.062 348.262C119.292 342.715 113.198 321.992 117.279 307.869Z"/><path fill="#DE8D7B" transform="scale(1.22168 1.22176)" d="M119.07 549.945L121.458 550.98C118.818 578.241 116.666 606.128 113.248 633.248C107.055 682.383 99.6656 731.162 94.3559 780.431C89.2024 777.384 84.9442 774.982 79.596 772.286C81.7315 752.78 83.7313 732.718 86.5024 713.35C91.8091 676.261 99.2168 639.429 107.333 602.866C111.232 585.304 114.326 567.312 119.07 549.945Z"/><path fill="#ECE6BC" transform="scale(1.22168 1.22176)" d="M380.08 532.689C381.826 537.998 370.036 553.477 369.683 557.849C373.251 560.416 377.11 570.297 379.497 575.084C376.82 580.422 375.734 585.784 374.499 591.543C361.996 600.8 358.057 602.462 343.434 606.869C339.128 611.419 330.233 625.156 327.308 627.129C322.429 616.744 318.696 604.523 315.233 593.507C323.948 588.079 330.415 583.818 337.776 576.369C352.558 561.41 362.86 545.065 380.08 532.689Z"/><path fill="#040202" transform="scale(1.22168 1.22176)" d="M372.477 564.354C375.195 570.894 366.907 570.114 362.989 569.979L362.373 568.846C364.107 566.373 367.374 567.72 372.477 564.354Z"/><path fill="#FDD367" transform="scale(1.22168 1.22176)" d="M165.784 461.22C197.815 471.741 222.761 481.046 253.951 492.713C259.931 500.067 266.228 509.697 271.542 517.668L258.624 512.915C246.735 508.178 230.906 503.419 218.639 499.505C195.293 492.056 172.974 484.945 150 476.358C155.521 471.627 160.635 466.36 165.784 461.22Z"/><path fill="#A1C49E" transform="scale(1.22168 1.22176)" d="M159.404 766.462C195.384 778.015 222.984 778.575 259.868 774.985C260.02 780.01 260.521 787.845 259.434 792.739C259.174 793.91 258.892 793.687 257.563 794.331C225.81 801.629 185.813 793.336 155.726 782.996L159.404 766.462Z"/><path fill="#FEFEFE" transform="scale(1.22168 1.22176)" d="M403.216 499.454C415.271 501.745 427.71 504.498 439.758 507C430.303 525.563 421.157 542.656 410.847 560.763L403.397 558.987C403.703 554.09 404.955 540.878 395.041 543.206C391.151 544.12 388.488 549.561 386.624 552.955C383.559 552.005 379.801 550.503 376.727 549.37C384.444 533.208 394.597 515.353 403.216 499.454Z"/><path fill="#A1C49E" transform="scale(1.22168 1.22176)" d="M152.027 1278.33C152.963 1280.05 153.951 1281.75 155.044 1283.38C163.145 1295.47 177.729 1306.93 192.264 1309.67C209.065 1312.85 223.75 1302.6 236.887 1293.62C235.291 1299.24 233.38 1304.73 231.479 1310.25C229.956 1313.89 228.392 1317.29 226.304 1320.64C210.414 1327.45 194.452 1330.51 177.426 1325.86C163.926 1322.17 154.624 1315.03 147.652 1302.97C148.383 1294.43 149.467 1286.55 152.027 1278.33Z"/><path fill="#A1C49E" transform="scale(1.22168 1.22176)" d="M343.341 1312.66C343.761 1312.98 344.181 1313.34 344.501 1313.76C347.071 1317.16 348.074 1324.49 347.552 1328.65C346.799 1334.66 343.359 1339.36 338.673 1343C326.508 1352.45 307.61 1357.18 292.396 1355.05C283.218 1353.76 275.513 1350.2 269.909 1342.71C267.467 1336.95 264.564 1328.94 265.901 1322.65L266.777 1322.14C268.783 1323.53 269.504 1325.97 270.455 1328.14C282.597 1333.08 294.786 1335.26 307.898 1333.47C322.359 1331.5 334.519 1324.17 343.341 1312.66Z"/><path fill="#FEFEFE" transform="scale(1.22168 1.22176)" d="M255.568 1342.85C257.43 1345.1 257.604 1347.81 257.338 1350.62C256.875 1355.52 253.47 1359.31 249.82 1362.32C245.226 1366.11 239.802 1368.89 234.253 1370.98C225.399 1374.33 216.004 1375.78 206.846 1378.05C190.308 1382.15 171.927 1389.45 154.623 1387.75C143.088 1386.62 134.958 1381.24 127.696 1372.53C126.869 1370.21 126.561 1368.27 126.597 1365.83C126.63 1363.59 126.698 1361.54 128.355 1359.91C129.47 1359.82 129.994 1359.6 130.911 1360.39C134.889 1363.82 133.924 1368.11 142.149 1372.67C146.733 1375.22 152.421 1376.95 157.694 1376.77C167.451 1376.42 176.526 1371.91 186.01 1370.06C199.345 1367.46 213.132 1367.27 226.228 1363.44C238.391 1359.88 249.284 1354.24 255.568 1342.85Z"/><path fill="#FEFEFE" transform="scale(1.22168 1.22176)" d="M406.319 1361.01L407.119 1361.48C407.37 1362.18 407.643 1362.85 407.656 1363.61C407.724 1367.54 404.602 1371.02 401.908 1373.54C386.699 1387.77 365.635 1395.76 347.196 1404.86C338.186 1409.31 329.272 1414.72 319.692 1417.82C314.228 1419.59 309.009 1420.29 303.266 1420.06C294.069 1419.69 286.827 1416.65 280.646 1409.84C279.886 1405.63 280.245 1401.16 280.325 1396.9C287.885 1403.59 295.368 1408.12 305.673 1408.75C313.14 1409.22 320.07 1407.96 327.124 1405.53C337.783 1401.85 347.356 1395.61 357.267 1390.34C374.266 1381.3 391.736 1373.91 406.319 1361.01Z"/><path fill="#ECE6BC" transform="scale(1.22168 1.22176)" d="M372.682 595.898L372.879 596.088C373.995 601.118 346.142 655.908 341.717 664.376L338.253 656.501C334.874 648.398 331.578 639.298 328.388 631.045C333.531 622.992 338.417 616.565 344.2 609.009C356.872 605.352 361.802 603.053 372.682 595.898Z"/><path fill="#A1C49E" transform="scale(1.22168 1.22176)" d="M311.551 755.623C314.126 759.093 313.098 770.506 310.395 774.002C301.329 785.727 277.003 790.637 263.58 793.774C261.342 790.185 262.004 779.275 262.065 774.715C283.093 771.287 293.808 767.222 311.551 755.623Z"/><path fill="#DE8D7B" transform="scale(1.22168 1.22176)" d="M338.88 1345.65C339.99 1346.45 340.988 1347.66 341.646 1348.86C343.188 1351.65 343.563 1354.84 342.557 1357.88C340.608 1363.77 335.235 1368.65 329.7 1371.17C317.515 1376.72 302.451 1369.87 290.934 1365.42C288.741 1364.58 286.695 1363.76 284.862 1362.24C283.15 1360.82 282.535 1359.77 282.316 1357.62C284.579 1354.61 290.763 1356.59 294.285 1356.99C310.572 1358.8 324.947 1353.87 338.88 1345.65Z"/><path fill="#DE8D7B" transform="scale(1.22168 1.22176)" d="M78.9299 774.852C86.146 777.212 96.3211 785.055 103.669 788.935C118.996 797.027 133.868 803.355 149.827 809.947L145.595 817.773L144.363 818.229C127.336 811.693 84.467 797.798 75.8142 779.927C76.182 777.471 77.1681 776.99 78.9299 774.852Z"/><path fill="#DE8D7B" transform="scale(1.22168 1.22176)" d="M153.927 1316.14C156.506 1318.31 159.395 1320.29 162.32 1321.97C180.299 1332.24 198.788 1331.79 218.15 1326.41C215.293 1329.63 212.279 1332.47 209.037 1335.29C203.401 1339.03 197.339 1341.81 190.557 1342.57C175.605 1344.23 161.921 1335.25 150.81 1326.3L153.927 1316.14Z"/><path fill="#6193A8" transform="scale(1.22168 1.22176)" d="M441.2 506.193L440.451 505.831C431.284 501.462 406.943 500.079 404.327 494.63C408.426 490.919 441.697 500.262 449.089 502.208C439.293 523.521 424.157 552.112 411.367 571.845C408.209 570.996 405.17 570.474 402.541 568.626C401.563 566.366 401.649 567.314 401.906 564.913C405.41 563.211 407.37 566.769 409.145 565.193L409.046 565.023L405.552 562.537L405.657 561.72L411.839 561.411C416.721 558.901 437.605 516.687 440.376 509.265C440.539 508.829 441.067 506.794 441.2 506.193Z"/><path fill="#30444C" transform="scale(1.22168 1.22176)" d="M405.657 561.72L411.839 561.411L409.76 562.542L405.657 561.72Z"/><path fill="#A1C49E" transform="scale(1.22168 1.22176)" d="M126.812 766.583C131.495 772.144 133.961 775.177 139.876 779.486C138.92 785.445 137.376 791.432 135.974 797.312C135.238 799.573 135.773 799.017 134.111 800.234C131.733 800.303 129.754 798.792 127.579 797.55C126.599 787.195 126.597 776.966 126.812 766.583Z"/><path fill="#A1C49E" transform="scale(1.22168 1.22176)" d="M126.664 752.891C131.374 755.429 137.644 759.687 142.86 762.637L140.441 773.549C140.19 774.265 139.902 774.412 139.341 775.046C135.411 774.107 129.647 766.817 126.718 763.572L126.664 752.891Z"/><path fill="#DE8D7B" transform="scale(1.22168 1.22176)" d="M296.229 450.978C299.109 452.777 303.816 455.906 301.448 459.818C294.452 461.655 287.547 452.71 289.33 446.659C291.352 446.942 290.992 447.228 292.812 449.129L293.78 447.886L296.547 449.995L296.229 450.978Z"/><path fill="#B88D86" transform="scale(1.22168 1.22176)" d="M293.78 447.886L296.547 449.995L296.229 450.978C295.171 450.533 293.843 449.712 292.812 449.129L293.78 447.886Z"/><path fill="#FEFEFE" transform="scale(1.22168 1.22176)" d="M293.78 447.886C291.31 445.711 290.753 445.296 289.085 442.285L289.416 441.266C293.352 441.17 304.94 445.411 306.329 449.149C303.566 452.544 300.167 451.411 296.547 449.995L293.78 447.886Z"/><path fill="#6193A8" transform="scale(1.22168 1.22176)" d="M374.689 558.934C380.99 560.274 383.143 561.917 382.15 568.404C381.64 568.424 380.774 568.237 380.229 568.149C377.713 565.618 376.283 562.167 374.689 558.934Z"/><path fill="#3B5E78" transform="scale(1.22168 1.22176)" d="M373.503 555.283C377.981 555.044 382.338 555.286 384.982 559.318C379.59 559.894 377.304 558.764 373.503 555.283Z"/><path fill="#FEFEFE" transform="scale(1.22168 1.22176)" d="M402.029 571.629C404.38 572.122 406.391 572.15 407.306 574.369L406.015 576.498C404.833 577.612 404.566 578.053 402.96 578.38C401.66 576.434 402.101 574.355 402.029 571.629Z"/><path fill="#ECE6BC" fill-opacity="0.019607844" transform="scale(1.22168 1.22176)" d="M109.202 681.584L110.875 681.853C110.878 685.104 110.988 686.148 111.488 689.315L108.4 688.215L109.202 681.584Z"/><path fill="#F2BD7E" transform="scale(1.22168 1.22176)" d="M102.056 604.306L104.406 605.301C103.896 608.778 103.744 610.502 102.451 613.787L102.056 604.306Z"/><path fill="#6193A8" transform="scale(1.22168 1.22176)" d="M375.609 551.796C379.744 551.787 381.925 553.15 385.263 555.237C381.016 555.285 378.888 554.502 375.609 551.796Z"/><path fill="#B88D86" transform="scale(1.22168 1.22176)" d="M121.749 541.218L121.458 550.98L119.07 549.945L121.749 541.218Z"/><path fill="#948B80" fill-opacity="0.34901962" transform="scale(1.22168 1.22176)" d="M109.202 681.584L109.759 678.976L110.432 679.096L110.875 681.853L109.202 681.584Z"/><path fill="#E4D0BA" fill-opacity="0.011764706" transform="scale(1.22168 1.22176)" d="M252.416 1330.5L253.424 1330.61L253.821 1332.12L252.715 1332.28L252.416 1330.5Z"/><path fill="#ECE6BC" transform="scale(1.22168 1.22176)" d="M587.707 0L608.689 0L611.307 0L626.856 0L629.568 0L643.087 0L644.838 0L676.361 0C683.343 2.61452 692.166 4.97006 696.721 10.8758C710.953 12.2758 727.746 13.0963 739.07 22.6202C749.197 24.6452 753.415 27.2333 762.673 31.2484L762.882 0L765.301 0L785.907 0L788.55 0L803.568 0L806.244 0L806.181 80.6357C806.178 93.227 806.741 113.304 805.709 125.308L812.205 127.812C813.015 110.578 817.109 87.6637 824.667 71.9305C826.533 68.0462 833.363 64.2944 835.261 59.6959C837.37 54.586 833.966 44.1728 841.197 42.7145C845.339 45.9889 842.207 56.9161 840.816 61.3034C845.694 65.6921 847.273 67.388 850.235 73.2227C848.683 93.7259 843.898 117.251 840.824 137.991L856.504 144.224C858.707 129.006 859.975 113.358 864.142 98.5321C866.915 88.6671 869.027 87.6291 878.577 86.8265C879.49 80.344 879.442 76.5423 883.052 70.993L884.566 70.171C888.657 73.0451 886.097 83.5809 885.432 88.0796C887.961 89.4527 890.76 90.878 893.149 92.4432C890.732 112.994 886.184 134.485 884.339 154.524C891.721 157.223 901.028 160.923 908.393 163.169L908.394 54.582C908.386 41.9733 907.509 12.7635 908.669 1.30501L908.39 0L939.606 0L952.379 0L951.798 2.29162L951.971 105.127C951.973 121.131 952.802 145.299 951.894 160.615C974.177 169.177 996.038 175.842 1018.76 183.008C1023.26 184.428 1022.83 186.233 1022.99 190.385C1022.79 195.147 1023.24 205.518 1022.85 209.024L1022.99 210.68C1022.08 219.074 1022.91 229.64 1022.55 238.278L1022.56 238.653L1022.51 274.384C1022.59 305.702 1023.07 337.83 1022.69 369.07L1024 371.697L1024 396.299L1023.07 396.358C1015.88 395.658 984.047 381.741 974.926 378.036L888.679 343.289L770.852 296.183C708.802 271.976 647.207 248.674 585.755 222.889L585.586 111.231C585.554 80.8148 585.148 49.5478 585.647 19.1915C586.917 16.6546 587.276 11.2137 587.591 8.20086L587.707 0Z"/><path fill="#040202" transform="scale(1.22168 1.22176)" d="M608.689 0L611.307 0L626.856 0L629.568 0L643.087 0L644.838 0L676.361 0C683.343 2.61452 692.166 4.97006 696.721 10.8758C710.953 12.2758 727.746 13.0963 739.07 22.6202C749.197 24.6452 753.415 27.2333 762.673 31.2484L762.882 0L765.301 0L764.581 113.9C735.588 102.738 705.98 92.885 676.627 82.698C654.045 74.861 631.382 65.9435 608.648 58.7352L608.689 0Z"/><path fill="#DE8D7B" transform="scale(1.22168 1.22176)" d="M679.531 44.7928L681.75 45.8492C684.925 50.9668 706.917 54.4013 713.285 54.6925C714.904 55.5184 714.81 55.4201 716.634 55.1708C717.771 58.2479 717.251 88.7942 717.228 94.4001C704.08 89.8571 691.579 85.5752 678.594 80.5603C679.554 68.4575 679.462 56.9188 679.531 44.7928Z"/><path fill="#DE8D7B" transform="scale(1.22168 1.22176)" d="M644.838 0L676.361 0C683.343 2.61452 692.166 4.97006 696.721 10.8758C710.953 12.2758 727.746 13.0963 739.07 22.6202C732.227 22.5011 719.894 24.7049 717.375 32.2173C714.918 31.8558 714.141 31.7019 711.804 30.8842C708.575 26.8838 689.841 27.945 680.626 17.6872L679.915 15.9874C679.129 17.4541 679.109 17.3637 677.813 18.4451C670.849 18.9837 651.498 12.4944 644.418 10.2326C644.394 6.75683 644.625 3.46469 644.838 0Z"/><path fill="#2B1A24" transform="scale(1.22168 1.22176)" d="M679.915 15.9874C683.324 12.1498 690.126 8.44242 695.098 10.9772L694.731 11.701C689.757 13.0718 683.278 12.6126 680.626 17.6872L679.915 15.9874Z"/><path fill="#ECE6BC" transform="scale(1.22168 1.22176)" d="M611.307 0L626.856 0L626.78 62.319C621.744 60.4263 616.404 58.6271 611.309 56.8329C610.998 37.9194 611.202 18.9218 611.307 0Z"/><path fill="#FEFEFE" transform="scale(1.22168 1.22176)" d="M679.995 21.4905C691.763 26.699 699.01 28.9885 711.804 30.8842C714.141 31.7019 714.918 31.8558 717.375 32.2173C717.138 39.748 716.972 47.0235 716.959 54.5569C703.11 51.9705 694.609 48.9093 681.75 45.8492L679.531 44.7928C679.404 36.7993 679.67 29.4882 679.995 21.4905Z"/><path fill="#ECE6BC" transform="scale(1.22168 1.22176)" d="M629.568 0L643.087 0C641.059 20.4557 641.82 46.9273 642.043 67.8912L629.385 63.541L629.568 0Z"/><path fill="#DE8D7B" transform="scale(1.22168 1.22176)" d="M739.07 22.6202C749.197 24.6452 753.415 27.2333 762.673 31.2484L762.616 43.7459C756.211 43.2691 718.994 37.6978 720.093 29.8355C725.613 23.943 734.042 26.8589 739.07 22.6202Z"/><path fill="#B88D86" transform="scale(1.22168 1.22176)" d="M713.285 54.6925C715.583 54.357 714.504 54.2095 716.634 55.1708C714.81 55.4201 714.904 55.5184 713.285 54.6925Z"/><path fill="#DE8D7B" transform="scale(1.22168 1.22176)" d="M719.397 34.0029C736.068 40.807 744.393 43.8724 762.684 44.916C762.685 50.6796 762.382 60.5751 762.824 66.0158L762.834 68.7686C762.026 80.0625 762.299 98.5969 762.092 110.522C748.069 105.274 733.626 100.29 719.499 95.2615C719.274 82.6324 719.382 69.709 719.37 57.0555C719.354 49.4411 719.241 41.5959 719.397 34.0029Z"/><path fill="#FEFEFE" transform="scale(1.22168 1.22176)" d="M719.397 34.0029C736.068 40.807 744.393 43.8724 762.684 44.916C762.685 50.6796 762.382 60.5751 762.824 66.0158C754.605 66.181 731.111 60.0908 722.25 57.7816L719.37 57.0555C719.354 49.4411 719.241 41.5959 719.397 34.0029Z"/><path fill="#130C09" transform="scale(1.22168 1.22176)" d="M722.25 57.7816C731.111 60.0908 754.605 66.181 762.824 66.0158L762.834 68.7686C762.519 68.0933 761.771 66.7424 760.903 66.6395C749.444 65.2823 732.112 64.6065 722.035 58.9232L722.25 57.7816Z"/><path fill="#DE8D7B" transform="scale(1.22168 1.22176)" d="M644.404 35.1459C684.039 50.1652 677.007 31.007 676.998 79.627C670.63 78.8391 651.239 71.3699 644.401 68.8642L644.404 35.1459Z"/><path fill="#FEFEFE" transform="scale(1.22168 1.22176)" d="M644.505 10.9872C655.574 16.4737 665.848 18.8887 678.058 19.7416L677.292 42.0574C666.394 40.8262 654.758 36.812 644.431 33.2402L644.505 10.9872Z"/><path fill="#040202" transform="scale(1.22168 1.22176)" d="M785.907 0L788.55 0L803.568 0L806.244 0L806.181 80.6357C806.178 93.227 806.741 113.304 805.709 125.308L812.205 127.812C813.015 110.578 817.109 87.6637 824.667 71.9305C826.533 68.0462 833.363 64.2944 835.261 59.6959C837.37 54.586 833.966 44.1728 841.197 42.7145C845.339 45.9889 842.207 56.9161 840.816 61.3034C845.694 65.6921 847.273 67.388 850.235 73.2227C848.683 93.7259 843.898 117.251 840.824 137.991L856.504 144.224C858.707 129.006 859.975 113.358 864.142 98.5321C866.915 88.6671 869.027 87.6291 878.577 86.8265C879.49 80.344 879.442 76.5423 883.052 70.993L884.566 70.171C888.657 73.0451 886.097 83.5809 885.432 88.0796C887.961 89.4527 890.76 90.878 893.149 92.4432C890.732 112.994 886.184 134.485 884.339 154.524C891.721 157.223 901.028 160.923 908.393 163.169L908.394 54.582C908.386 41.9733 907.509 12.7635 908.669 1.30501C910.539 2.54451 911.002 4.4577 910.995 6.60303C910.827 59.9408 910.317 113.857 911.143 167.136C896.875 161.096 881.349 156.042 866.745 150.647L786.116 120.511C784.689 82.2033 785.742 38.6748 785.907 0Z"/><path fill="#ECE6BC" transform="scale(1.22168 1.22176)" d="M788.55 0L803.568 0C804.104 41.493 803.651 83.0078 803.426 124.508L788.631 118.918L788.55 0Z"/><path fill="#DE8D7B" transform="scale(1.22168 1.22176)" d="M836.129 63.8724C839.212 64.2157 842.706 64.8735 844.671 67.5528C848.651 72.997 847.518 81.9387 846.355 88.2399C843.337 104.589 840.865 120.895 838.778 137.403L828.408 133.747L814.513 128.477C814.187 115.353 821.848 67.691 836.129 63.8724Z"/><path fill="#DE8D7B" transform="scale(1.22168 1.22176)" d="M859.526 139.414C860.779 125.743 863.887 111.648 866.482 98.2262C869.313 83.5799 878.813 93.39 880.579 86.2104C881.329 87.3062 881.815 88.2059 882.884 88.9931C885.9 90.383 887.17 90.9166 889.893 92.8596C889.626 110.206 884.561 135.792 881.441 153.246C875.003 151.062 868.552 148.962 862.254 146.406L860.469 145.572C858.961 143.109 859.489 142.626 859.526 139.414Z"/><path fill="#F9B2B0" transform="scale(1.22168 1.22176)" d="M859.526 139.414L860.453 139.163C861.84 141.233 862.272 143.129 863.032 145.501L862.254 146.406L860.469 145.572C858.961 143.109 859.489 142.626 859.526 139.414Z"/><path fill="#E4D0BA" transform="scale(1.22168 1.22176)" d="M838.919 44.9489C839.844 45.4086 840.287 45.7936 841.145 46.4059C841.929 49.2802 841.313 49.6697 840.55 52.8668C839.618 52.9214 839.773 52.767 838.706 52.259C837.834 49.7356 838.478 47.6509 838.919 44.9489Z"/><path fill="#E4D0BA" transform="scale(1.22168 1.22176)" d="M880.579 86.2104C880.98 84.0896 881.066 81.94 882.569 80.5105C884.31 82.5778 883.33 86.4867 882.884 88.9931C881.815 88.2059 881.329 87.3062 880.579 86.2104Z"/><path fill="#E4D0BA" transform="scale(1.22168 1.22176)" d="M883.957 72.4192C884.764 72.2862 884.31 72.2533 885.268 72.7991L884.568 74.5932L883.846 74.7973L883.171 74.274L883.957 72.4192Z"/><path fill="#DE8D7B" transform="scale(1.22168 1.22176)" d="M951.814 322.838C960.394 310.254 965.552 274.692 977.847 261.54C991.021 263.942 1008.98 270.554 1022.51 274.384C1022.59 305.702 1023.07 337.83 1022.69 369.07L1022.1 369.076C1021.39 368.169 1020.85 367.399 1019.74 366.953C996.957 357.813 973.934 349.423 951.18 340.165L951.814 322.838Z"/><path fill="#ECE6BC" transform="scale(1.22168 1.22176)" d="M939.606 0L952.379 0L951.798 2.29162L951.971 105.127C951.973 121.131 952.802 145.299 951.894 160.615C974.177 169.177 996.038 175.842 1018.76 183.008C1023.26 184.428 1022.83 186.233 1022.99 190.385C1022.79 195.147 1023.24 205.518 1022.85 209.024L1022.99 210.68C1020.2 210.153 1017.47 209.173 1014.82 208.171C986.965 197.647 959.405 186.329 931.539 175.834L931.642 53.5168C931.63 44.8795 930.977 7.16029 932.292 1.2634L939.606 0Z"/><path fill="#ECE6BC" transform="scale(1.22168 1.22176)" d="M951.894 160.615C974.177 169.177 996.038 175.842 1018.76 183.008C1023.26 184.428 1022.83 186.233 1022.99 190.385C1022.79 195.147 1023.24 205.518 1022.85 209.024C1004.29 199.518 972.199 189.665 951.623 180.704L951.795 163.5L951.894 160.615Z"/><path fill="#F2BD7E" transform="scale(1.22168 1.22176)" d="M951.894 160.615C974.177 169.177 996.038 175.842 1018.76 183.008C1023.26 184.428 1022.83 186.233 1022.99 190.385C1001.97 183.303 970.299 174.822 951.795 163.5L951.894 160.615Z"/><path fill="#040202" transform="scale(1.22168 1.22176)" d="M932.292 1.2634C936.443 10.825 933.669 153.856 933.921 174.396L949.18 180.038C949.245 160.711 948.611 6.05115 950.406 2.7719L951.798 2.29162L951.971 105.127C951.973 121.131 952.802 145.299 951.894 160.615L951.795 163.5L951.623 180.704C972.199 189.665 1004.29 199.518 1022.85 209.024L1022.99 210.68C1020.2 210.153 1017.47 209.173 1014.82 208.171C986.965 197.647 959.405 186.329 931.539 175.834L931.642 53.5168C931.63 44.8795 930.977 7.16029 932.292 1.2634Z"/><path fill="#ECE6BC" transform="scale(1.22168 1.22176)" d="M951.607 211.562C973.542 218.693 999.193 232.944 1022.56 238.653L1022.51 274.384C1008.98 270.554 991.021 263.942 977.847 261.54C965.552 274.692 960.394 310.254 951.814 322.838C951.167 285.948 951.639 248.523 951.607 211.562Z"/><path fill="#040202" transform="scale(1.22168 1.22176)" d="M931.605 201.067C954.579 210.795 978.292 218.979 1001.37 228.484C1008.53 231.434 1015.87 234.338 1022.55 238.278L1022.56 238.653C999.193 232.944 973.542 218.693 951.607 211.562C951.639 248.523 951.167 285.948 951.814 322.838L951.18 340.165C973.934 349.423 996.957 357.813 1019.74 366.953C1020.85 367.399 1021.39 368.169 1022.1 369.076C1017.68 370.043 944.223 339.966 931.739 335.19L931.605 201.067Z"/><path fill="#ECE6BC" transform="scale(1.22168 1.22176)" d="M933.722 204.74C938.64 206.462 944.283 208.803 949.205 210.707L949.182 339.023C943.929 337.483 939.424 335.595 934.363 333.557L933.722 204.74Z"/><path fill="#040202" transform="scale(1.22168 1.22176)" d="M585.647 19.1915C586.917 16.6546 587.276 11.2137 587.591 8.20086C588.306 43.7982 587.806 80.6842 587.77 116.379L588.326 221.365L905.794 347.859L983.077 378.773C990.284 381.676 1018.09 392.566 1023.07 396.358C1015.88 395.658 984.047 381.741 974.926 378.036L888.679 343.289L770.852 296.183C708.802 271.976 647.207 248.674 585.755 222.889L585.586 111.231C585.554 80.8148 585.148 49.5478 585.647 19.1915Z"/><path fill="#040202" transform="scale(1.22168 1.22176)" d="M608.716 82.3696C659.708 101.81 713.41 120.971 764.864 139.126L764.926 213.759C764.904 231.85 765.185 250.779 764.532 268.75C744.886 262.06 723.194 252.938 703.61 245.398C672.09 233.263 640.136 221.322 608.778 208.857L608.716 82.3696Z"/><path fill="#ECE6BC" transform="scale(1.22168 1.22176)" d="M628.993 92.4045C659.425 104.092 691.684 114.19 722.158 126.071C731.965 129.895 752.782 136.822 761.276 141.818C762.578 143.763 762.235 145.965 762.241 148.434C762.601 160.598 764.054 261.34 760.818 265.23C748.545 259.675 717.621 250.153 709.181 244.613L708.047 243.755L706.637 243.585C703.995 243.432 645.459 220.792 643.538 219.147L641.596 218.999L629.215 214.302L628.993 92.4045Z"/><path fill="#DE8D7B" transform="scale(1.22168 1.22176)" d="M752.58 149.641C754.879 148.519 757.647 147.339 760.175 147.495L761.163 148.639L762.241 148.434C762.601 160.598 764.054 261.34 760.818 265.23C748.545 259.675 717.621 250.153 709.181 244.613L708.047 243.755C708.017 229.913 709.454 218.583 711.294 204.877C712.185 198.246 713.644 187.806 713.598 181.353L714.644 175.268C715.228 170.38 715.877 164.809 720.402 162.074C721.222 161.578 720.996 161.707 721.25 160.737C724.022 158.414 729.591 156.76 733.157 155.84C739.886 153.504 745.725 151.542 752.58 149.641Z"/><path fill="#DE8D7B" transform="scale(1.22168 1.22176)" d="M752.58 149.641C754.879 148.519 757.647 147.339 760.175 147.495L761.163 148.639C760.368 157.738 760.134 184.948 760.988 193.745C747.391 188.173 728.199 179.629 714.644 175.268C715.228 170.38 715.877 164.809 720.402 162.074C721.222 161.578 720.996 161.707 721.25 160.737C724.022 158.414 729.591 156.76 733.157 155.84C739.886 153.504 745.725 151.542 752.58 149.641Z"/><path fill="#422F2D" transform="scale(1.22168 1.22176)" d="M752.58 149.641C750.29 152.566 736.61 156.393 733.157 155.84C739.886 153.504 745.725 151.542 752.58 149.641Z"/><path fill="#FEFEFE" transform="scale(1.22168 1.22176)" d="M714.644 175.268C728.199 179.629 747.391 188.173 760.988 193.745L761.492 195.237L760.54 196.821C745.744 191.579 732.076 186.119 717.486 180.447C716.743 189.781 712.809 240.018 709.181 244.613L708.047 243.755C708.017 229.913 709.454 218.583 711.294 204.877C712.185 198.246 713.644 187.806 713.598 181.353L714.644 175.268Z"/><path fill="#FEFEFE" transform="scale(1.22168 1.22176)" d="M762.241 148.434C762.601 160.598 764.054 261.34 760.818 265.23C759.613 252.582 760.369 236.362 760.197 223.453C760.119 217.545 759.86 202.103 760.54 196.821L761.492 195.237L760.988 193.745C760.134 184.948 760.368 157.738 761.163 148.639L762.241 148.434Z"/><path fill="#DE8D7B" transform="scale(1.22168 1.22176)" d="M646.048 153.73C669.03 161.333 690.328 170.345 712.991 178.398L712.996 179.002L713.598 181.353C713.644 187.806 712.185 198.246 711.294 204.877C709.454 218.583 708.017 229.913 708.047 243.755L706.637 243.585C703.995 243.432 645.459 220.792 643.538 219.147L641.596 218.999C643.396 214.904 645.045 165.739 645.232 158.217C645.228 156.471 645.628 155.443 646.048 153.73Z"/><path fill="#B88D86" transform="scale(1.22168 1.22176)" d="M712.996 179.002L713.598 181.353C713.644 187.806 712.185 198.246 711.294 204.877C709.454 218.583 708.017 229.913 708.047 243.755L706.637 243.585C706.836 225.899 709.703 208.907 711.433 191.382C711.835 187.308 712.148 182.988 712.996 179.002Z"/><path fill="#72534A" transform="scale(1.22168 1.22176)" d="M645.232 158.217C647.111 170.226 644.035 205.5 643.538 219.147L641.596 218.999C643.396 214.904 645.045 165.739 645.232 158.217Z"/><path fill="#DE8D7B" transform="scale(1.22168 1.22176)" d="M655.428 144.669C664.458 141.025 703.235 124.512 710.756 126.612C712.36 127.956 712.276 129.066 712.7 131.274C714.062 138.563 716.525 153.676 718.585 160.162C720.107 161.056 719.27 160.775 721.25 160.737C720.996 161.707 721.222 161.578 720.402 162.074C715.877 164.809 715.228 170.38 714.644 175.268L713.598 181.353L712.996 179.002L712.991 178.398C690.328 170.345 669.03 161.333 646.048 153.73C646.347 151.305 646.323 151.022 647.313 148.838C647.486 148.202 647.701 148.242 648.385 147.643C650.483 146.537 653.189 145.56 655.428 144.669Z"/><path fill="#FEFEFE" transform="scale(1.22168 1.22176)" d="M647.313 148.838L713.178 175.557L712.991 178.398C690.328 170.345 669.03 161.333 646.048 153.73C646.347 151.305 646.323 151.022 647.313 148.838Z"/><path fill="#422F2D" transform="scale(1.22168 1.22176)" d="M713.178 175.557C713.533 169.81 716.673 162.988 716.484 159.899C715.919 150.627 713.224 141.494 712.024 131.603L712.7 131.274C714.062 138.563 716.525 153.676 718.585 160.162C720.107 161.056 719.27 160.775 721.25 160.737C720.996 161.707 721.222 161.578 720.402 162.074C715.877 164.809 715.228 170.38 714.644 175.268L713.598 181.353L712.996 179.002L712.991 178.398L713.178 175.557Z"/><path fill="#422F2D" transform="scale(1.22168 1.22176)" d="M655.428 144.669L655.362 145.717C653.134 147.026 651.036 147.77 648.385 147.643C650.483 146.537 653.189 145.56 655.428 144.669Z"/><path fill="#ECE6BC" transform="scale(1.22168 1.22176)" d="M611.836 86.2578L626.546 91.7279L626.813 213.449C622.106 211.4 616.193 209.261 611.335 207.361L611.244 123.754C611.272 116.353 610.89 92.2966 611.836 86.2578Z"/><path fill="#040202" transform="scale(1.22168 1.22176)" d="M785.946 145.999C799.855 152.243 817.464 158.096 831.936 163.411L910.528 192.388L910.605 282.164C910.58 292.299 911.208 315.617 910.213 324.796C899.147 320.957 883.918 314.268 872.459 309.807L785.943 276.194C785.913 233.634 784.929 188.296 785.946 145.999Z"/><path fill="#ECE6BC" transform="scale(1.22168 1.22176)" d="M788.451 149.346C827.733 165.33 869.006 178.702 908.405 194.245L908.216 321.587C869.235 307.669 827.33 290.173 788.56 274.867C788.212 232.867 787.883 191.328 788.451 149.346Z"/><path fill="#040202" transform="scale(1.22168 1.22176)" d="M799.304 183.531C804.632 183.365 881.042 211.98 885.068 215.605C880.861 215.791 853.706 205.234 848.817 202.985C836.453 197.298 809.286 190.848 799.304 183.531Z"/><path fill="#040202" transform="scale(1.22168 1.22176)" d="M803.071 210.234C807.033 211.319 820.84 216.196 824.049 217.713C833.953 222.395 879.076 236.552 883.308 242.34C877.682 241.466 856.61 232.595 849.92 230.1C835.733 224.809 820.695 218.941 806.501 213.471C804.213 212.59 803.782 212.11 803.071 210.234Z"/><path fill="#040202" transform="scale(1.22168 1.22176)" d="M802.613 236.739C810.942 238.479 877.191 263.433 879.984 267.277C871.613 265.416 805.187 240.696 802.613 236.739Z"/><path fill="#040202" fill-opacity="0.98431373" transform="scale(1.22168 1.22176)" d="M585.586 0L587.707 0L587.591 8.20086C587.276 11.2137 586.917 16.6546 585.647 19.1915C585.373 13.3032 585.572 5.99322 585.586 0Z"/></svg>